<svg width="24" height="25" viewBox="0 0 24 25" fill="none" xmlns="http://www.w3.org/2000/svg">
<g id="Frame">
<g id="Group">
<path id="Layer 2" d="M19.8571 3.5H16.2857C15.7174 3.5 15.1723 3.73705 14.7705 4.15901C14.3686 4.58097 14.1429 5.15326 14.1429 5.75V8H9.85714C9.28882 8 8.74378 8.23705 8.34191 8.65901C7.94005 9.08097 7.71429 9.65326 7.71429 10.25V13.25H4.14286C3.57454 13.25 3.02949 13.4871 2.62763 13.909C2.22576 14.331 2 14.9033 2 15.5V19.25C2 19.8467 2.22576 20.419 2.62763 20.841C3.02949 21.2629 3.57454 21.5 4.14286 21.5H19.8571C20.4255 21.5 20.9705 21.2629 21.3724 20.841C21.7742 20.419 22 19.8467 22 19.25V5.75C22 5.15326 21.7742 4.58097 21.3724 4.15901C20.9705 3.73705 20.4255 3.5 19.8571 3.5ZM3.42857 19.25V15.5C3.42857 15.3011 3.50383 15.1103 3.63778 14.9697C3.77174 14.829 3.95342 14.75 4.14286 14.75H8.42857C8.61801 14.75 8.79969 14.671 8.93365 14.5303C9.0676 14.3897 9.14286 14.1989 9.14286 14V10.25C9.14286 10.0511 9.21811 9.86032 9.35207 9.71967C9.48602 9.57902 9.6677 9.5 9.85714 9.5H14.1429V20H4.14286C3.95342 20 3.77174 19.921 3.63778 19.7803C3.50383 19.6397 3.42857 19.4489 3.42857 19.25ZM20.5714 19.25C20.5714 19.4489 20.4962 19.6397 20.3622 19.7803C20.2283 19.921 20.0466 20 19.8571 20H15.5714V5.75C15.5714 5.55109 15.6467 5.36032 15.7806 5.21967C15.9146 5.07902 16.0963 5 16.2857 5H19.8571C20.0466 5 20.2283 5.07902 20.3622 5.21967C20.4962 5.36032 20.5714 5.55109 20.5714 5.75V19.25Z" fill="#4F4F4F"/>
</g>
</g>
</svg>
