<svg width="24" height="25" viewBox="0 0 24 25" fill="none" xmlns="http://www.w3.org/2000/svg">
<g id="Frame">
<g id="Group">
<g id="Layer 2">
<path id="Vector" d="M19.8571 3.5H16.2857C15.7174 3.5 15.1723 3.73705 14.7705 4.15901C14.3686 4.58097 14.1429 5.15326 14.1429 5.75V21.5H19.8571C20.4255 21.5 20.9705 21.2629 21.3724 20.841C21.7742 20.419 22 19.8467 22 19.25V5.75C22 5.15326 21.7742 4.58097 21.3724 4.15901C20.9705 3.73705 20.4255 3.5 19.8571 3.5ZM7 10.25V13.25H4.14286C3.57506 13.2518 3.031 13.4894 2.6295 13.911C2.22801 14.3325 2.0017 14.9038 2 15.5V19.25C2.0017 19.8462 2.22801 20.4175 2.6295 20.839C3.031 21.2606 3.57506 21.4982 4.14286 21.5H12.7143V8H9.14286C8.57506 8.00178 8.031 8.2394 7.6295 8.66098C7.228 9.08255 7.0017 9.65381 7 10.25Z" fill="#0039BD"/>
</g>
</g>
</g>
</svg>
