<svg width="20" height="20" viewBox="0 0 20 20" fill="none" xmlns="http://www.w3.org/2000/svg">
<g id="Group">
<path id="Vector" d="M10.3039 11.1764C10.9733 11.1764 11.516 10.6496 11.516 9.99983C11.516 9.35002 10.9733 8.82324 10.3039 8.82324C9.63447 8.82324 9.0918 9.35002 9.0918 9.99983C9.0918 10.6496 9.63447 11.1764 10.3039 11.1764Z" fill="#0039BD"/>
<path id="Vector_2" d="M19.2894 14.2189C18.4721 13.4254 17.2492 13.3348 16.3436 13.8553L14.6051 12.1678C15.4497 10.5948 15.3313 8.61327 14.1311 7.11563L16.7919 4.53284C17.4664 4.84471 18.3006 4.73219 18.8608 4.18845C19.5697 3.50035 19.5697 2.38063 18.8608 1.69249C18.152 1.00442 16.9985 1.00438 16.2896 1.69253C15.731 2.23477 15.6129 3.04497 15.9348 3.70091L13.2741 6.28371C12.6034 5.77731 11.7928 5.43783 10.9088 5.33033V2.35212H9.69667V5.33029C8.81269 5.43775 8.00201 5.77723 7.33136 6.28367L4.51261 3.54741C5.06035 2.64536 4.93558 1.46207 4.13831 0.688154C3.19313 -0.229385 1.65519 -0.229385 0.710001 0.688154C-0.235186 1.60569 -0.235186 3.09854 0.710001 4.01604C1.51026 4.79294 2.72983 4.90907 3.65554 4.37941L6.47433 7.11563C5.95265 7.76664 5.60292 8.55354 5.49222 9.41166H0V10.5882H5.49222C5.60292 11.4463 5.95265 12.2332 6.47437 12.8842L2.60151 16.6436C1.92585 16.3311 1.0912 16.4457 0.532511 16.988C-0.176359 17.6761 -0.176359 18.7958 0.532511 19.4839C1.24126 20.1719 2.39484 20.1721 3.10375 19.4839C3.66237 18.9416 3.78042 18.1315 3.45857 17.4756L7.3314 13.7162C8.00205 14.2226 8.81273 14.562 9.69671 14.6695V18.8243H10.9088V14.6695C12.0909 14.5258 13.142 13.9673 13.9023 13.1494L15.4865 14.6872C14.9503 15.5665 15.044 16.7535 15.8611 17.5467C16.8084 18.4663 18.3419 18.4665 19.2894 17.5467C20.2368 16.6272 20.2369 15.1386 19.2894 14.2189ZM10.3028 12.3531C8.96606 12.3531 7.87857 11.2974 7.87857 9.99991C7.87857 8.70238 8.96606 7.64674 10.3028 7.64674C11.6394 7.64674 12.7269 8.70238 12.7269 9.99991C12.7269 11.2974 11.6394 12.3531 10.3028 12.3531Z" fill="#0039BD"/>
</g>
</svg>
