<svg width="20" height="20" viewBox="0 0 20 20" fill="none" xmlns="http://www.w3.org/2000/svg">
<g id="Group">
<path id="Vector" d="M10.2954 7.64648C8.95864 7.64648 7.87109 8.70212 7.87109 9.99969C7.87109 11.2972 8.95864 12.3529 10.2954 12.3529C11.6322 12.3529 12.7198 11.2972 12.7198 9.99969C12.7198 8.70212 11.6322 7.64648 10.2954 7.64648ZM10.2954 11.1763C9.62703 11.1763 9.08325 10.6485 9.08325 9.99969C9.08325 9.35088 9.62703 8.82307 10.2954 8.82307C10.9638 8.82307 11.5076 9.35088 11.5076 9.99969C11.5076 10.6485 10.9638 11.1763 10.2954 11.1763Z" fill="#575757"/>
<path id="Vector_2" d="M19.2911 14.2188C18.4938 13.4449 17.2747 13.3239 16.3454 13.8555L14.6066 12.1677C14.9552 11.5185 15.1526 10.7812 15.1526 9.99991C15.1526 8.91396 14.7715 7.91284 14.1326 7.11559L16.7934 4.53279C17.4683 4.84482 18.3025 4.73199 18.8626 4.18837C19.5715 3.50022 19.5715 2.38055 18.8626 1.6924C18.1536 1.0043 17.0001 1.0043 16.2911 1.6924C15.7324 2.23469 15.6144 3.04489 15.9363 3.70079L13.2754 6.28363C12.6047 5.77723 11.7941 5.43778 10.91 5.33024V2.35207H9.69783V5.33024C8.81381 5.4377 8.00312 5.77719 7.33239 6.28359L4.51376 3.54768C5.05006 2.66834 4.95632 1.48128 4.13912 0.68811C3.19388 -0.22939 1.65589 -0.22935 0.710612 0.68811C-0.23681 1.60769 -0.236931 3.09622 0.710612 4.01604C1.51108 4.79294 2.73059 4.90895 3.65628 4.37937L6.47527 7.11559C5.95356 7.76659 5.60381 8.55349 5.4931 9.41158H0.000570749V10.5882H5.4931C5.60381 11.4463 5.95356 12.2332 6.47527 12.8842L2.60219 16.6435C1.92645 16.3311 1.0918 16.4457 0.533112 16.988C-0.175798 17.6761 -0.175798 18.7958 0.533112 19.4839C1.2421 20.1721 2.39551 20.1721 3.1045 19.4839C3.66319 18.9416 3.78125 18.1314 3.45934 17.4756L7.33239 13.7162C8.00307 14.2226 8.81377 14.5621 9.69783 14.6696V18.8243H10.91V14.6695C12.0922 14.5258 13.1433 13.9673 13.9037 13.1494L15.4883 14.6875C14.9405 15.5895 15.0653 16.7728 15.8626 17.5467C16.8079 18.4642 18.3459 18.4642 19.2911 17.5467C20.2363 16.6292 20.2363 15.1363 19.2911 14.2188ZM17.1483 2.52436C17.3845 2.29501 17.7691 2.29493 18.0054 2.52436C18.2417 2.75376 18.2417 3.12693 18.0054 3.35633C17.7691 3.58576 17.3846 3.58576 17.1483 3.35633C16.912 3.12693 16.912 2.75376 17.1483 2.52436ZM1.56773 3.184C1.09402 2.72419 1.09394 1.97996 1.56777 1.52007C2.04039 1.06128 2.80938 1.06128 3.282 1.52007C3.75571 1.97988 3.7558 2.72411 3.282 3.184C2.80938 3.64279 2.04039 3.64279 1.56773 3.184ZM2.24735 18.6519C2.01102 18.8813 1.62656 18.8813 1.39023 18.6519C1.1539 18.4225 1.1539 18.0493 1.39023 17.82C1.62648 17.5906 2.01102 17.5905 2.24735 17.82C2.48368 18.0493 2.48368 18.4225 2.24735 18.6519ZM10.3039 13.5297C8.29872 13.5297 6.6674 11.9462 6.6674 9.99991C6.6674 8.05356 8.29872 6.47012 10.3039 6.47012C12.3091 6.47012 13.9404 8.05356 13.9404 9.99991C13.9404 11.9462 12.3091 13.5297 10.3039 13.5297ZM18.4339 16.7147C17.9613 17.1735 17.1924 17.1735 16.7197 16.7147C16.2471 16.256 16.2471 15.5095 16.7197 15.0508C17.1924 14.592 17.9613 14.592 18.4339 15.0508C18.9066 15.5095 18.9066 16.256 18.4339 16.7147Z" fill="#575757"/>
</g>
</svg>
