<svg width="24" height="25" viewBox="0 0 24 25" fill="none" xmlns="http://www.w3.org/2000/svg">
<g id="Frame">
<g id="Group">
<path id="Vector" d="M19.0703 13.3106H17.1126C16.8461 13.3106 16.5882 13.3472 16.3427 13.4145C15.8584 12.4577 14.8696 11.8003 13.7303 11.8003H10.2697C9.13039 11.8003 8.14164 12.4577 7.65734 13.4145C7.40645 13.3456 7.14752 13.3107 6.88742 13.3106H4.92969C3.31426 13.3106 2 14.6315 2 16.255V19.4003C2 20.3744 2.78855 21.1669 3.75781 21.1669H20.2422C21.2114 21.1669 22 20.3744 22 19.4003V16.255C22 14.6315 20.6857 13.3106 19.0703 13.3106ZM7.34004 14.7447V19.9892H3.75781C3.43473 19.9892 3.17188 19.725 3.17188 19.4003V16.255C3.17188 15.2809 3.96043 14.4884 4.92969 14.4884H6.88742C7.04648 14.4884 7.20051 14.5101 7.34715 14.5501C7.34265 14.6149 7.34028 14.6798 7.34004 14.7447ZM15.4881 19.9892H8.51191V14.7447C8.51191 13.7706 9.30047 12.9781 10.2697 12.9781H13.7303C14.6995 12.9781 15.4881 13.7706 15.4881 14.7447V19.9892ZM20.8281 19.4003C20.8281 19.725 20.5653 19.9892 20.2422 19.9892H16.66V14.7447C16.6597 14.6798 16.6573 14.6149 16.6529 14.5501C16.8027 14.5092 16.9573 14.4884 17.1126 14.4884H19.0703C20.0396 14.4884 20.8281 15.2809 20.8281 16.255V19.4003Z" fill="#4F4F4F"/>
<path id="Vector_2" d="M5.90853 7.74959C4.47303 7.74959 3.30518 8.92329 3.30518 10.366C3.30514 11.8087 4.47303 12.9824 5.90853 12.9824C7.344 12.9824 8.51189 11.8087 8.51189 10.366C8.51189 8.92329 7.34404 7.74959 5.90853 7.74959ZM5.9085 11.8046C5.11916 11.8046 4.47701 11.1593 4.47701 10.366C4.47701 9.57269 5.11916 8.92733 5.9085 8.92733C6.69783 8.92733 7.33998 9.57269 7.33998 10.366C7.33998 11.1593 6.69783 11.8046 5.9085 11.8046ZM11.9999 4.5C10.0821 4.5 8.52189 6.06805 8.52189 7.99546C8.52189 9.92288 10.0821 11.4909 11.9999 11.4909C13.9178 11.4909 15.478 9.92288 15.478 7.99546C15.478 6.06809 13.9178 4.5 11.9999 4.5ZM11.9999 10.3132C10.7283 10.3132 9.69377 9.27347 9.69377 7.99546C9.69377 6.71749 10.7283 5.67774 11.9999 5.67774C13.2716 5.67774 14.3061 6.71745 14.3061 7.99546C14.3061 9.27347 13.2716 10.3132 11.9999 10.3132ZM18.0913 7.74959C16.6559 7.74959 15.488 8.92329 15.488 10.366C15.488 11.8087 16.6559 12.9824 18.0913 12.9824C19.5269 12.9824 20.6947 11.8087 20.6947 10.366C20.6947 8.92329 19.5269 7.74959 18.0913 7.74959ZM18.0913 11.8046C17.302 11.8046 16.6599 11.1593 16.6599 10.366C16.6599 9.57269 17.302 8.92733 18.0913 8.92733C18.8807 8.92733 19.5228 9.57269 19.5228 10.366C19.5228 11.1593 18.8807 11.8046 18.0913 11.8046Z" fill="#4F4F4F"/>
</g>
</g>
</svg>
