<svg width="24" height="25" viewBox="0 0 24 25" fill="none" xmlns="http://www.w3.org/2000/svg">
<g id="Frame 414">
<g id="Group">
<path id="Vector" d="M11.9998 10.9913C13.8766 10.9913 15.398 9.53816 15.398 7.74564C15.398 5.95312 13.8766 4.5 11.9998 4.5C10.123 4.5 8.60156 5.95312 8.60156 7.74564C8.60156 9.53816 10.123 10.9913 11.9998 10.9913Z" fill="#0039BD"/>
<path id="Vector_2" d="M18.8749 10.9914C20.0614 10.9914 21.0232 10.0727 21.0232 8.93954C21.0232 7.80634 20.0614 6.8877 18.8749 6.8877C17.6884 6.8877 16.7266 7.80634 16.7266 8.93954C16.7266 10.0727 17.6884 10.9914 18.8749 10.9914Z" fill="#0039BD"/>
<path id="Vector_3" d="M5.12488 10.9914C6.31136 10.9914 7.27319 10.0727 7.27319 8.93954C7.27319 7.80634 6.31136 6.8877 5.12488 6.8877C3.9384 6.8877 2.97656 7.80634 2.97656 8.93954C2.97656 10.0727 3.9384 10.9914 5.12488 10.9914Z" fill="#0039BD"/>
<path id="Vector_4" d="M7.2415 12.8338C6.39584 12.1721 5.62999 12.2597 4.65219 12.2597C3.18978 12.2597 2 13.3893 2 14.7775V18.8517C2 19.4546 2.5152 19.9448 3.14876 19.9448C5.884 19.9448 5.55448 19.992 5.55448 19.8321C5.55448 16.9451 5.19646 14.828 7.2415 12.8338Z" fill="#0039BD"/>
<path id="Vector_5" d="M12.9308 12.275C11.2229 12.1389 9.73846 12.2765 8.45802 13.286C6.31529 14.9252 6.72765 17.1324 6.72765 19.8325C6.72765 20.5468 7.33621 21.1389 8.09554 21.1389C16.3405 21.1389 16.6686 21.393 17.1575 20.3589C17.3179 20.0092 17.2739 20.1203 17.2739 16.7749C17.2739 14.1177 14.865 12.275 12.9308 12.275ZM19.348 12.2601C18.3649 12.2601 17.6032 12.1734 16.7587 12.8342C18.7885 14.8135 18.4457 16.7862 18.4457 19.8325C18.4457 19.9934 18.1722 19.9451 20.8104 19.9451C21.4667 19.9451 22.0002 19.4374 22.0002 18.8133V14.7779C22.0002 13.3897 20.8104 12.2601 19.348 12.2601Z" fill="#0039BD"/>
</g>
</g>
</svg>
