<svg width="24" height="24" viewBox="0 0 24 24" fill="none" xmlns="http://www.w3.org/2000/svg">
<g id="dashboard">
<g id="Group">
<path id="Vector" d="M4 11.3333H9.33333C9.86355 11.3326 10.3718 11.1217 10.7468 10.7468C11.1217 10.3718 11.3326 9.86355 11.3333 9.33333V4C11.3326 3.46978 11.1217 2.96149 10.7468 2.58657C10.3718 2.21165 9.86355 2.00071 9.33333 2H4C3.46978 2.00071 2.96149 2.21165 2.58657 2.58657C2.21165 2.96149 2.00071 3.46978 2 4V9.33333C2.00071 9.86355 2.21165 10.3718 2.58657 10.7468C2.96149 11.1217 3.46978 11.3326 4 11.3333ZM3.33333 4C3.33333 3.82319 3.40357 3.65362 3.5286 3.5286C3.65362 3.40357 3.82319 3.33333 4 3.33333H9.33333C9.51014 3.33333 9.67971 3.40357 9.80474 3.5286C9.92976 3.65362 10 3.82319 10 4V9.33333C10 9.51014 9.92976 9.67971 9.80474 9.80474C9.67971 9.92976 9.51014 10 9.33333 10H4C3.82319 10 3.65362 9.92976 3.5286 9.80474C3.40357 9.67971 3.33333 9.51014 3.33333 9.33333V4ZM4 22H9.33333C9.86355 21.9993 10.3718 21.7884 10.7468 21.4134C11.1217 21.0385 11.3326 20.5302 11.3333 20V14.6667C11.3326 14.1364 11.1217 13.6282 10.7468 13.2532C10.3718 12.8783 9.86355 12.6674 9.33333 12.6667H4C3.46978 12.6674 2.96149 12.8783 2.58657 13.2532C2.21165 13.6282 2.00071 14.1364 2 14.6667V20C2.00071 20.5302 2.21165 21.0385 2.58657 21.4134C2.96149 21.7884 3.46978 21.9993 4 22ZM3.33333 14.6667C3.33333 14.4899 3.40357 14.3203 3.5286 14.1953C3.65362 14.0702 3.82319 14 4 14H9.33333C9.51014 14 9.67971 14.0702 9.80474 14.1953C9.92976 14.3203 10 14.4899 10 14.6667V20C10 20.1768 9.92976 20.3464 9.80474 20.4714C9.67971 20.5964 9.51014 20.6667 9.33333 20.6667H4C3.82319 20.6667 3.65362 20.5964 3.5286 20.4714C3.40357 20.3464 3.33333 20.1768 3.33333 20V14.6667ZM20 2H14.6667C14.1364 2.00071 13.6282 2.21165 13.2532 2.58657C12.8783 2.96149 12.6674 3.46978 12.6667 4V9.33333C12.6674 9.86355 12.8783 10.3718 13.2532 10.7468C13.6282 11.1217 14.1364 11.3326 14.6667 11.3333H20C20.5302 11.3326 21.0385 11.1217 21.4134 10.7468C21.7884 10.3718 21.9993 9.86355 22 9.33333V4C21.9993 3.46978 21.7884 2.96149 21.4134 2.58657C21.0385 2.21165 20.5302 2.00071 20 2ZM20.6667 9.33333C20.6667 9.51014 20.5964 9.67971 20.4714 9.80474C20.3464 9.92976 20.1768 10 20 10H14.6667C14.4899 10 14.3203 9.92976 14.1953 9.80474C14.0702 9.67971 14 9.51014 14 9.33333V4C14 3.82319 14.0702 3.65362 14.1953 3.5286C14.3203 3.40357 14.4899 3.33333 14.6667 3.33333H20C20.1768 3.33333 20.3464 3.40357 20.4714 3.5286C20.5964 3.65362 20.6667 3.82319 20.6667 4V9.33333ZM17.3333 12.6667C16.4104 12.6667 15.5081 12.9404 14.7407 13.4531C13.9732 13.9659 13.3751 14.6948 13.0219 15.5475C12.6687 16.4002 12.5763 17.3385 12.7563 18.2438C12.9364 19.149 13.3809 19.9805 14.0335 20.6332C14.6861 21.2858 15.5177 21.7303 16.4229 21.9103C17.3282 22.0904 18.2665 21.998 19.1192 21.6448C19.9719 21.2916 20.7007 20.6934 21.2135 19.926C21.7263 19.1586 22 18.2563 22 17.3333C21.9986 16.0961 21.5065 14.9099 20.6316 14.0351C19.7567 13.1602 18.5706 12.6681 17.3333 12.6667ZM17.3333 20.6667C16.6741 20.6667 16.0296 20.4712 15.4814 20.1049C14.9333 19.7386 14.506 19.218 14.2537 18.6089C14.0014 17.9999 13.9354 17.3296 14.064 16.683C14.1927 16.0364 14.5101 15.4425 14.9763 14.9763C15.4425 14.5101 16.0364 14.1927 16.683 14.064C17.3296 13.9354 17.9999 14.0014 18.6089 14.2537C19.218 14.506 19.7386 14.9333 20.1049 15.4814C20.4712 16.0296 20.6667 16.6741 20.6667 17.3333C20.6656 18.2171 20.3141 19.0643 19.6892 19.6892C19.0643 20.3141 18.2171 20.6656 17.3333 20.6667Z" fill="#575757"/>
</g>
</g>
</svg>
