<svg width="24" height="24" viewBox="0 0 24 24" fill="none" xmlns="http://www.w3.org/2000/svg">
<g id="Frame 407">
<g id="Group">
<path id="Vector" fill-rule="evenodd" clip-rule="evenodd" d="M4.21777 22H8.54109C9.12908 21.9993 9.6928 21.7655 10.1086 21.3497C10.5243 20.9339 10.7582 20.3702 10.7589 19.7822V15.4583C10.7581 14.8704 10.5242 14.3068 10.1084 13.8912C9.69263 13.4755 9.12899 13.2418 8.54109 13.2411H4.21777C3.62988 13.2418 3.06622 13.4755 2.65046 13.8912C2.2347 14.3068 2.00078 14.8704 2 15.4583V19.7822C2.00065 20.3702 2.23452 20.9339 2.65029 21.3497C3.06606 21.7655 3.62978 21.9993 4.21777 22ZM17.625 2C16.7597 2 15.9138 2.25659 15.1944 2.73732C14.4749 3.21805 13.9142 3.90133 13.583 4.70076C13.2519 5.50019 13.1653 6.37985 13.3341 7.22852C13.5029 8.07719 13.9196 8.85674 14.5314 9.46859C15.1433 10.0804 15.9228 10.4971 16.7715 10.6659C17.6201 10.8347 18.4998 10.7481 19.2992 10.417C20.0987 10.0858 20.7819 9.52508 21.2627 8.80562C21.7434 8.08615 22 7.24029 22 6.375C21.9986 5.21511 21.5372 4.10312 20.7171 3.28295C19.8969 2.46278 18.7849 2.0014 17.625 2ZM4.21777 10.7589H8.54109C9.12906 10.7582 9.69275 10.5243 10.1085 10.1085C10.5243 9.69275 10.7582 9.12906 10.7589 8.54109V4.21746C10.7581 3.62952 10.5242 3.06587 10.1085 2.65017C9.69271 2.23446 9.12903 2.00064 8.54109 2H4.21777C3.62983 2.00064 3.06615 2.23446 2.65039 2.65017C2.23462 3.06587 2.00072 3.62952 2 4.21746V8.54109C2.00071 9.12906 2.2346 9.69275 2.65036 10.1085C3.06612 10.5243 3.6298 10.7582 4.21777 10.7589ZM19.7822 13.2411H15.4586C14.8707 13.2418 14.3071 13.4755 13.8913 13.8912C13.4756 14.3068 13.2416 14.8704 13.2409 15.4583V19.7822C13.2415 20.3702 13.4754 20.9339 13.8911 21.3497C14.3069 21.7655 14.8706 21.9993 15.4586 22H19.7822C20.3702 21.9993 20.9339 21.7654 21.3497 21.3497C21.7654 20.9339 21.9993 20.3702 22 19.7822V15.4583C21.9992 14.8704 21.7652 14.3069 21.3495 13.8912C20.9337 13.4756 20.3701 13.2418 19.7822 13.2411Z" fill="#0039BD"/>
</g>
</g>
</svg>
