<svg width="21" height="21" viewBox="0 0 21 21" fill="none" xmlns="http://www.w3.org/2000/svg">
<g id="Group">
<path id="Vector" fill-rule="evenodd" clip-rule="evenodd" d="M10.2183 2.78571C10.2595 2.62519 10.3628 2.48761 10.5055 2.40324C10.6481 2.31886 10.8185 2.2946 10.979 2.33578C11.6341 2.50345 12.2319 2.84428 12.71 3.32254C13.4707 4.08219 13.8382 5.10461 13.7482 6.20145C13.7349 6.35766 13.6636 6.50322 13.5483 6.6094C13.433 6.71558 13.282 6.77464 13.1252 6.77492C13.1087 6.77492 13.0903 6.77418 13.072 6.77274C12.9902 6.76595 12.9107 6.7431 12.8378 6.70551C12.7649 6.66792 12.7001 6.61632 12.6472 6.55368C12.5943 6.49103 12.5543 6.41856 12.5294 6.34041C12.5045 6.26227 12.4953 6.17999 12.5023 6.09828C12.5446 5.58578 12.4619 4.84137 11.8261 4.20649C11.5065 3.88648 11.1066 3.65845 10.6684 3.54633C10.5889 3.52597 10.5142 3.49013 10.4485 3.44088C10.3829 3.39163 10.3276 3.32992 10.2858 3.25928C10.244 3.18865 10.2165 3.11046 10.2049 3.02921C10.1934 2.94795 10.1979 2.86521 10.2183 2.78571ZM18.7739 19.2498H12.2322L17.3627 17.1006C17.476 17.0528 17.5728 16.9725 17.6407 16.87C17.7087 16.7674 17.745 16.6471 17.7449 16.524V9.20688H18.7739V19.2498ZM1.27301 9.20688H2.30035V16.5241C2.30065 16.6473 2.33723 16.7677 2.40553 16.8702C2.47383 16.9728 2.57083 17.0529 2.68441 17.1007L7.81469 19.2498H1.27301V9.20688ZM3.55152 7.68098V16.1082L9.39867 18.5577V15.9472H9.09723C8.65327 15.9465 8.22772 15.7698 7.9139 15.4558C7.60008 15.1417 7.42362 14.7161 7.4232 14.2721V13.8424C7.20693 13.7441 7.0235 13.5856 6.89481 13.386C6.76611 13.1863 6.69758 12.9537 6.69738 12.7162V11.0334C6.70332 10.7436 6.59962 10.4623 6.40703 10.2457L6.08922 9.87485C5.69091 9.41047 5.36109 8.89149 5.1098 8.33368L3.55152 7.68098ZM7.00617 2.99348C5.42219 4.57766 5.43688 7.1868 7.03922 9.06258L7.35715 9.4334C7.67841 9.80202 7.87856 10.2605 7.93047 10.7467H12.1146C12.168 10.2606 12.3687 9.80236 12.6897 9.43344L13.0058 9.06262C14.61 7.18684 14.6247 4.5777 13.0407 2.99352C12.2385 2.19694 11.1539 1.74989 10.0234 1.74989C8.89295 1.74989 7.80833 2.1969 7.00617 2.99348ZM8.67281 13.9538H11.4273V14.2721C11.4261 14.3843 11.381 14.4917 11.3017 14.5711C11.2224 14.6505 11.1151 14.6958 11.0029 14.6971H9.09723C8.98505 14.6955 8.87793 14.6502 8.79865 14.5708C8.71937 14.4914 8.6742 14.3843 8.67273 14.2721V13.9538H8.67281ZM12.098 11.9968V12.7038H7.94699V11.9968H12.098ZM16.4953 7.6809L14.9371 8.33368C14.6844 8.89117 14.3541 9.41005 13.9558 9.87485L13.6398 10.2457C13.4472 10.4623 13.3435 10.7436 13.3494 11.0334V12.7163C13.349 12.9433 13.2862 13.1659 13.168 13.3598C13.0497 13.5536 12.8805 13.7112 12.6787 13.8155V14.2721C12.6782 14.7163 12.5015 15.1422 12.1873 15.4563C11.8731 15.7703 11.4472 15.9469 11.0029 15.9472H10.6483V18.5577L16.4954 16.1082V7.68098L16.4953 7.6809ZM19.3987 7.95672H17.7449V6.74141C17.7448 6.63854 17.7194 6.53728 17.6708 6.44661C17.6222 6.35594 17.552 6.27867 17.4663 6.22165C17.3807 6.16463 17.2824 6.12962 17.18 6.11973C17.0776 6.10984 16.9743 6.12538 16.8794 6.16496L15.4038 6.78278C15.447 6.51267 15.4709 6.23986 15.4755 5.96637C15.4904 5.25197 15.3605 4.54194 15.0937 3.87908C14.8268 3.21622 14.4285 2.61427 13.9227 2.1095C12.8864 1.07866 11.4842 0.5 10.0225 0.5C8.56084 0.5 7.1586 1.07866 6.1223 2.1095C5.61646 2.61411 5.21822 3.21609 4.95167 3.87901C4.68512 4.54194 4.5558 5.25204 4.57152 5.96637C4.57519 6.23997 4.59914 6.51292 4.64316 6.78297L3.16754 6.16496C3.0725 6.1252 2.96912 6.10953 2.86657 6.11932C2.76402 6.12912 2.66547 6.16408 2.57968 6.22111C2.49388 6.27814 2.4235 6.35547 2.37477 6.44623C2.32604 6.537 2.30048 6.63839 2.30035 6.74141V7.95688H0.648203C0.566128 7.95684 0.484851 7.97299 0.409019 8.00438C0.333188 8.03578 0.264289 8.08182 0.206264 8.13987C0.148239 8.19792 0.102226 8.26683 0.0708546 8.34268C0.0394837 8.41852 0.023371 8.4998 0.0234377 8.58188V19.8748C0.0233812 19.9569 0.039501 20.0382 0.0708756 20.114C0.10225 20.1899 0.148264 20.2588 0.206287 20.3168C0.26431 20.3749 0.333204 20.4209 0.409031 20.4523C0.484858 20.4837 0.566131 20.4999 0.648203 20.4998H19.3987C19.4807 20.4999 19.562 20.4837 19.6378 20.4523C19.7137 20.4209 19.7826 20.3749 19.8406 20.3168C19.8986 20.2588 19.9446 20.1899 19.976 20.114C20.0074 20.0382 20.0235 19.9569 20.0234 19.8748V8.58188C20.0235 8.4998 20.0074 8.41852 19.976 8.34268C19.9447 8.26683 19.8986 8.19792 19.8406 8.13987C19.7826 8.08182 19.7137 8.03578 19.6379 8.00438C19.562 7.97299 19.4807 7.95684 19.3987 7.95688V7.95672Z" fill="#4F4F4F"/>
</g>
</svg>
