<svg width="20" height="20" viewBox="0 0 20 20" fill="none" xmlns="http://www.w3.org/2000/svg">
<g id="Group">
<g id="Group_2">
<path id="Vector" fill-rule="evenodd" clip-rule="evenodd" d="M10.4296 1.43089C10.3983 1.5543 10.4171 1.68509 10.482 1.79463C10.5469 1.90417 10.6526 1.98352 10.7759 2.0153C11.3034 2.15077 11.7849 2.4253 12.1701 2.81026C12.7883 3.42865 13.0616 4.23287 12.9892 5.09764C12.9787 5.22435 13.0188 5.35008 13.1008 5.44724C13.1829 5.5444 13.3001 5.60507 13.4267 5.61595C13.4405 5.61708 13.4544 5.61767 13.4682 5.61767C13.5887 5.61748 13.7047 5.57209 13.7934 5.49048C13.882 5.40887 13.9369 5.29698 13.947 5.1769C14.0417 4.03028 13.6646 2.94605 12.8496 2.13093C12.3426 1.62429 11.7088 1.26306 11.0146 1.08494C10.8912 1.05365 10.7604 1.07248 10.6508 1.1373C10.5413 1.20212 10.4618 1.30767 10.4298 1.43089H10.4296ZM20.001 20H11.3834L18.1207 17.1777C18.2078 17.141 18.2822 17.0793 18.3344 17.0004C18.3865 16.9215 18.4142 16.829 18.414 16.7344V8.33585H20.001V20ZM0 8.33585H1.58496V16.7344C1.58513 16.8292 1.61325 16.9218 1.66579 17.0006C1.71832 17.0795 1.79295 17.1411 1.88033 17.1777L8.61763 20H0V8.33585ZM2.54724 6.52041V16.4147L9.52025 19.3359V15.8714H8.9653C8.52691 15.8706 8.1067 15.6961 7.79682 15.386C7.48694 15.0759 7.31268 14.6555 7.31225 14.2171V13.5962L7.18439 13.538C6.98074 13.4455 6.808 13.2963 6.68679 13.1083C6.56557 12.9203 6.501 12.7014 6.50076 12.4777V10.5964C6.50753 10.2203 6.37294 9.85538 6.12359 9.57373L5.76811 9.15914C5.33623 8.65604 4.97877 8.09359 4.70665 7.48897L4.67149 7.4103L2.54724 6.52057V6.52041ZM6.47299 1.45421C7.41066 0.522763 8.67869 0 10.0004 0C11.3221 0 12.5901 0.522763 13.5278 1.45421C14.0541 1.97963 14.447 2.62339 14.6737 3.33169C15.2566 5.14659 14.7166 7.10813 13.5007 8.53508L13.1473 8.94963C12.8172 9.32922 12.6107 9.80049 12.5553 10.3005L12.5334 10.4943H7.46499L7.44374 10.2997C7.39075 9.79983 7.18484 9.32848 6.8541 8.94995L6.49861 8.53539C5.27757 7.11106 4.74173 5.14882 5.32547 3.33411C5.55266 2.62497 5.9461 1.98042 6.47299 1.45421ZM8.27218 13.6429V14.2171C8.27389 14.4004 8.34746 14.5758 8.47707 14.7054C8.60668 14.835 8.78199 14.9087 8.9653 14.9104H11.0955C11.2789 14.9089 11.4544 14.8354 11.584 14.7056C11.7137 14.5759 11.7871 14.4003 11.7884 14.2169V13.6427L8.27218 13.6429ZM12.538 11.4553H7.46093V12.6822H12.5381V11.4552L12.538 11.4553ZM17.4538 6.52057L15.33 7.41002L15.2946 7.48815C15.0199 8.09236 14.6617 8.65495 14.2304 9.15937L13.877 9.5742C13.6284 9.85604 13.494 10.2206 13.5003 10.5964V12.4777C13.4999 12.6916 13.4407 12.9012 13.3293 13.0838C13.2178 13.2663 13.0584 13.4148 12.8683 13.5129L12.7505 13.574V14.217C12.75 14.6558 12.5754 15.0764 12.2651 15.3865C11.9548 15.6967 11.5341 15.8711 11.0954 15.8714H10.4806V19.336L17.4536 16.4148L17.4538 6.52057Z" fill="#0039BD"/>
</g>
</g>
</svg>
