<svg width="24" height="24" viewBox="0 0 24 24" fill="none" xmlns="http://www.w3.org/2000/svg">
<g id="ticket +">
<path id="Vector" d="M10.5735 22H10.5718C9.94593 21.9995 9.35736 21.7554 8.91499 21.3123L2.68358 15.0724C1.77214 14.1593 1.77214 12.6736 2.68358 11.7606L11.0836 3.34509C11.9493 2.47778 13.1011 2 14.3267 2H19.6561C20.9484 2 22 3.05125 22 4.34375V9.65637C22 10.8811 21.5227 12.0323 20.6562 12.8978L12.23 21.3146C11.7874 21.7566 11.1991 22 10.5735 22ZM14.3267 3.5625C13.5191 3.5625 12.7601 3.87731 12.1896 4.44884L3.7895 12.8644C3.48564 13.1688 3.48564 13.6639 3.7895 13.9684L10.0209 20.2083C10.1682 20.3558 10.3643 20.4374 10.573 20.4375H10.5737C10.6762 20.4378 10.7778 20.4177 10.8725 20.3785C10.9673 20.3393 11.0533 20.2817 11.1257 20.2091L19.5518 11.7925C20.1229 11.2222 20.4374 10.4634 20.4374 9.65641V4.34375C20.4374 3.91297 20.0869 3.5625 19.6561 3.5625H14.3267ZM16.3354 9.92969C15.043 9.92969 13.9915 8.87844 13.9915 7.58594C13.9915 6.29344 15.043 5.24219 16.3354 5.24219C17.6279 5.24219 18.6793 6.29344 18.6793 7.58594C18.6793 8.87844 17.6279 9.92969 16.3354 9.92969ZM16.3354 6.80469C15.9046 6.80469 15.5541 7.15516 15.5541 7.58594C15.5541 8.01672 15.9046 8.36719 16.3354 8.36719C16.7664 8.36719 17.1167 8.01672 17.1167 7.58594C17.1167 7.15516 16.7664 6.80469 16.3354 6.80469Z" fill="#111827"/>
</g>
</svg>
