<svg width="24" height="24" viewBox="0 0 24 24" fill="none" xmlns="http://www.w3.org/2000/svg">
<g id="ticket +  with backgroun">
<path id="Vector" d="M21.6716 3.61963C21.6389 2.92058 21.0795 2.36119 20.3805 2.32851L13.3902 2.00152C13.2016 1.99257 13.0133 2.02314 12.8372 2.09128C12.6612 2.15942 12.5014 2.26362 12.368 2.39719L2.39711 12.3681C2.14284 12.6224 2 12.9673 2 13.3269C2 13.6866 2.14284 14.0314 2.39711 14.2857L9.71435 21.6029C9.84012 21.729 9.98957 21.829 10.1541 21.8972C10.3187 21.9653 10.495 22.0002 10.6731 22C10.8512 22.0002 11.0276 21.9652 11.1922 21.8971C11.3567 21.829 11.5062 21.729 11.632 21.6029L21.6028 11.6321C21.8726 11.3623 22.0163 10.9912 21.9985 10.6099L21.6716 3.61963ZM19.1174 7.15841C18.489 7.78682 17.47 7.78682 16.8416 7.15841C16.2132 6.53001 16.2132 5.51109 16.8416 4.88268C17.47 4.25427 18.489 4.25427 19.1174 4.88268C19.7458 5.51109 19.7458 6.52994 19.1174 7.15841Z" fill="#0039BD"/>
</g>
</svg>
