<svg width="14" height="17" viewBox="0 0 14 17" fill="none" xmlns="http://www.w3.org/2000/svg">
<g id="Container">
<path id="Vector" d="M10.1818 16.5001H2.90909C2.13779 16.4993 1.3983 16.1925 0.852903 15.6472C0.30751 15.1018 0.000770148 14.3623 0 13.591V9.22733C0.000770148 8.45603 0.30751 7.71653 0.852903 7.17114C1.3983 6.62575 2.13779 6.31901 2.90909 6.31824H10.1818C10.9531 6.31901 11.6926 6.62575 12.238 7.17114C12.7834 7.71653 13.0901 8.45603 13.0909 9.22733V13.591C13.0901 14.3623 12.7834 15.1018 12.238 15.6472C11.6926 16.1925 10.9531 16.4993 10.1818 16.5001ZM2.90909 7.77278C2.52344 7.77317 2.15369 7.92654 1.881 8.19923C1.6083 8.47193 1.45493 8.84168 1.45455 9.22733V13.591C1.45493 13.9766 1.6083 14.3464 1.881 14.6191C2.15369 14.8918 2.52344 15.0451 2.90909 15.0455H10.1818C10.5675 15.0451 10.9372 14.8918 11.2099 14.6191C11.4826 14.3464 11.636 13.9766 11.6364 13.591V9.22733C11.636 8.84168 11.4826 8.47193 11.2099 8.19923C10.9372 7.92654 10.5675 7.77317 10.1818 7.77278H2.90909Z" fill="#FFFFFF"/>
<path id="Vector_2" d="M9.81814 7.77273H3.27268C3.0798 7.77273 2.89481 7.6961 2.75842 7.55971C2.62203 7.42332 2.54541 7.23834 2.54541 7.04545V4.5C2.54541 3.43913 2.96684 2.42172 3.71698 1.67157C4.46713 0.921427 5.48454 0.5 6.54541 0.5C7.60628 0.5 8.62369 0.921427 9.37384 1.67157C10.124 2.42172 10.5454 3.43913 10.5454 4.5V7.04545C10.5454 7.23834 10.4688 7.42332 10.3324 7.55971C10.196 7.6961 10.011 7.77273 9.81814 7.77273ZM3.99996 6.31818H9.09086V4.5C9.09086 3.8249 8.82268 3.17746 8.34532 2.70009C7.86795 2.22273 7.22051 1.95455 6.54541 1.95455C5.87031 1.95455 5.22287 2.22273 4.7455 2.70009C4.26814 3.17746 3.99996 3.8249 3.99996 4.5V6.31818Z" fill="#FFFFFF"/>
<path id="Vector_3" d="M6.5455 11.7728C7.14799 11.7728 7.63641 11.2843 7.63641 10.6819C7.63641 10.0794 7.14799 9.59094 6.5455 9.59094C5.94301 9.59094 5.45459 10.0794 5.45459 10.6819C5.45459 11.2843 5.94301 11.7728 6.5455 11.7728Z" fill="#FFFFFF"/>
</g>
</svg>
