<svg width="15" height="17" viewBox="0 0 15 17" fill="none" xmlns="http://www.w3.org/2000/svg">
<g id="Container">
<path id="Vector" d="M14.25 0.5H0.75C0.551088 0.5 0.360322 0.576623 0.21967 0.713013C0.0790176 0.849403 0 1.03439 0 1.22727V15.7727C0 15.9656 0.0790176 16.1506 0.21967 16.287C0.360322 16.4234 0.551088 16.5 0.75 16.5H11.25C11.3486 16.4996 11.4462 16.4806 11.5372 16.444C11.6284 16.4075 11.7112 16.3538 11.781 16.2862L14.781 13.3771C14.9132 13.2358 14.9906 13.0542 15 12.8636V1.22727C15 1.03439 14.921 0.849403 14.7803 0.713013C14.6397 0.576623 14.4489 0.5 14.25 0.5ZM10.5 12.8636V15.0455H1.5V1.95455H13.5V12.1364H11.25C11.0511 12.1364 10.8603 12.213 10.7197 12.3494C10.579 12.4858 10.5 12.6708 10.5 12.8636Z" fill="#FFFFFF"/>
<path id="Vector_2" d="M10.5005 6.31812H4.50049C4.30158 6.31812 4.11081 6.39474 3.97016 6.53113C3.82951 6.66752 3.75049 6.8525 3.75049 7.04539C3.75049 7.23827 3.82951 7.42326 3.97016 7.55965C4.11081 7.69604 4.30158 7.77266 4.50049 7.77266H10.5005C10.6994 7.77266 10.8902 7.69604 11.0308 7.55965C11.1715 7.42326 11.2505 7.23827 11.2505 7.04539C11.2505 6.8525 11.1715 6.66752 11.0308 6.53113C10.8902 6.39474 10.6994 6.31812 10.5005 6.31812ZM7.50049 9.22721H4.50049C4.30158 9.22721 4.11081 9.30383 3.97016 9.44022C3.82951 9.57661 3.75049 9.76159 3.75049 9.95448C3.75049 10.1474 3.82951 10.3323 3.97016 10.4687C4.11081 10.6051 4.30158 10.6818 4.50049 10.6818H7.50049C7.6994 10.6818 7.89017 10.6051 8.03082 10.4687C8.17147 10.3323 8.25049 10.1474 8.25049 9.95448C8.25049 9.76159 8.17147 9.57661 8.03082 9.44022C7.89017 9.30383 7.6994 9.22721 7.50049 9.22721Z" fill="#FFFFFF"/>
</g>
</svg>
