<svg width="15" height="17" viewBox="0 0 15 17" fill="none" xmlns="http://www.w3.org/2000/svg">
<g id="Text input container">
<g id="Text input">
<path id="Vector" d="M14.7593 4.09429L10.2663 0.665724C10.1964 0.612763 10.1134 0.570863 10.0222 0.542426C9.93092 0.513989 9.83322 0.499575 9.73467 0.50001H1.49764C1.10044 0.50001 0.719512 0.620417 0.438649 0.834744C0.157787 1.04907 0 1.33976 0 1.64287V15.3571C0 15.6602 0.157787 15.9509 0.438649 16.1653C0.719512 16.3796 1.10044 16.5 1.49764 16.5H4.49293C4.69153 16.5 4.88199 16.4398 5.02242 16.3326C5.16285 16.2255 5.24175 16.0801 5.24175 15.9286C5.24175 15.777 5.16285 15.6317 5.02242 15.5245C4.88199 15.4173 4.69153 15.3571 4.49293 15.3571H1.49764V1.64287H8.98585V3.92858C8.98585 4.23168 9.14364 4.52237 9.4245 4.7367C9.70537 4.95103 10.0863 5.07144 10.4835 5.07144H13.4788V7.92858C13.4788 8.08013 13.5577 8.22547 13.6981 8.33264C13.8385 8.4398 14.029 8.5 14.2276 8.5C14.4262 8.5 14.6167 8.4398 14.7571 8.33264C14.8975 8.22547 14.9764 8.08013 14.9764 7.92858V4.50001C14.977 4.4248 14.9581 4.35025 14.9208 4.28063C14.8836 4.21101 14.8287 4.14769 14.7593 4.09429ZM10.4835 2.44858L12.4229 3.92858H10.4835V2.44858Z" fill="white"/>
<path id="Vector_2" d="M11.741 11.6886L11.8908 10.7857H13.5681C13.6102 10.8572 13.671 10.9213 13.7469 10.9741C13.8228 11.0268 13.9121 11.0671 14.0092 11.0924C14.1064 11.1178 14.2093 11.1276 14.3116 11.1213C14.414 11.115 14.5135 11.0926 14.6041 11.0557C14.6946 11.0188 14.7743 10.9681 14.838 10.9067C14.9018 10.8453 14.9484 10.7746 14.9748 10.6989C15.0013 10.6232 15.007 10.5442 14.9918 10.4667C14.9765 10.3892 14.9405 10.315 14.8861 10.2486C14.7587 10.0661 14.5689 9.91337 14.3368 9.8067C14.1047 9.70003 13.8391 9.64341 13.5681 9.64286H11.8908C11.524 9.64066 11.1689 9.74127 10.8928 9.92559C10.6168 10.1099 10.439 10.3651 10.3931 10.6429L10.2958 11.2143L9.87644 11.4029L9.12762 11.1743C8.79151 11.0679 8.41614 11.0585 8.07162 11.1479C7.72711 11.2373 7.43702 11.4193 7.25557 11.66L6.42437 12.7743C6.24403 13.0162 6.18559 13.3001 6.26005 13.5726C6.3345 13.8451 6.53671 14.0875 6.82874 14.2543L7.46524 14.6143C7.45524 14.7132 7.45524 14.8125 7.46524 14.9114L6.83623 15.2657C6.66891 15.3613 6.52879 15.4818 6.42437 15.62C6.37266 15.6877 6.33972 15.7627 6.32761 15.8405C6.31549 15.9183 6.32446 15.9971 6.35395 16.0721C6.38345 16.1471 6.43283 16.2167 6.49905 16.2766C6.56527 16.3364 6.6469 16.3852 6.73888 16.42C6.82435 16.4578 6.91876 16.4823 7.01669 16.4921C7.11462 16.5019 7.21413 16.4969 7.30948 16.4772C7.40484 16.4576 7.49416 16.4237 7.57229 16.3776C7.65043 16.3315 7.71584 16.274 7.76477 16.2086L8.73074 15.6371C8.82527 15.5752 8.89806 15.4963 8.94251 15.4075C8.98697 15.3187 9.00169 15.2228 8.98534 15.1286C8.94541 14.901 8.94541 14.6704 8.98534 14.4429C9.00273 14.3425 8.98485 14.2404 8.93354 14.147C8.88222 14.0536 8.79932 13.9723 8.6933 13.9114L7.72732 13.34L8.55103 12.1971L9.65928 12.5514C9.78089 12.5916 9.91428 12.6064 10.0458 12.5943C10.1774 12.5823 10.3024 12.5438 10.4081 12.4829C10.6688 12.325 10.9558 12.1943 11.2618 12.0943C11.3797 12.0626 11.4853 12.0088 11.569 11.938C11.6527 11.8671 11.7119 11.7814 11.741 11.6886Z" fill="white"/>
<path id="Vector_3" d="M12.7303 13.0714C12.286 13.0714 11.8516 13.172 11.4822 13.3603C11.1128 13.5487 10.8248 13.8164 10.6548 14.1297C10.4848 14.4429 10.4403 14.7876 10.527 15.1201C10.6137 15.4527 10.8276 15.7581 11.1418 15.9979C11.456 16.2376 11.8562 16.4009 12.292 16.4671C12.7278 16.5332 13.1795 16.4992 13.59 16.3695C14.0005 16.2397 14.3513 16.02 14.5981 15.7381C14.845 15.4562 14.9767 15.1248 14.9767 14.7857C14.9767 14.3311 14.7401 13.895 14.3188 13.5735C13.8975 13.252 13.3261 13.0714 12.7303 13.0714ZM12.7303 15.3571C12.5822 15.3571 12.4374 15.3236 12.3143 15.2608C12.1911 15.198 12.0951 15.1088 12.0385 15.0044C11.9818 14.9 11.967 14.7851 11.9958 14.6742C12.0247 14.5634 12.0961 14.4616 12.2008 14.3816C12.3055 14.3017 12.4389 14.2473 12.5842 14.2253C12.7294 14.2032 12.88 14.2145 13.0168 14.2578C13.1537 14.301 13.2706 14.3743 13.3529 14.4682C13.4352 14.5622 13.4791 14.6727 13.4791 14.7857C13.4791 14.9373 13.4002 15.0826 13.2598 15.1898C13.1193 15.2969 12.9289 15.3571 12.7303 15.3571ZM3.74443 7.92857H11.2326C11.4312 7.92857 11.6217 7.86837 11.7621 7.7612C11.9026 7.65404 11.9815 7.50869 11.9815 7.35714C11.9815 7.20559 11.9026 7.06024 11.7621 6.95308C11.6217 6.84592 11.4312 6.78571 11.2326 6.78571H3.74443C3.54583 6.78571 3.35536 6.84592 3.21493 6.95308C3.0745 7.06024 2.99561 7.20559 2.99561 7.35714C2.99561 7.50869 3.0745 7.65404 3.21493 7.7612C3.35536 7.86837 3.54583 7.92857 3.74443 7.92857ZM3.74443 12.5H4.49325C4.69185 12.5 4.88231 12.4398 5.02274 12.3326C5.16318 12.2255 5.24207 12.0801 5.24207 11.9286C5.24207 11.777 5.16318 11.6317 5.02274 11.5245C4.88231 11.4173 4.69185 11.3571 4.49325 11.3571H3.74443C3.54583 11.3571 3.35536 11.4173 3.21493 11.5245C3.0745 11.6317 2.99561 11.777 2.99561 11.9286C2.99561 12.0801 3.0745 12.2255 3.21493 12.3326C3.35536 12.4398 3.54583 12.5 3.74443 12.5ZM3.74443 5.64286H6.73971C6.93831 5.64286 7.12878 5.58265 7.26921 5.47549C7.40964 5.36833 7.48853 5.22298 7.48853 5.07143C7.48853 4.91988 7.40964 4.77453 7.26921 4.66737C7.12878 4.5602 6.93831 4.5 6.73971 4.5H3.74443C3.54583 4.5 3.35536 4.5602 3.21493 4.66737C3.0745 4.77453 2.99561 4.91988 2.99561 5.07143C2.99561 5.22298 3.0745 5.36833 3.21493 5.47549C3.35536 5.58265 3.54583 5.64286 3.74443 5.64286ZM3.74443 10.2143H8.23735C8.43595 10.2143 8.62642 10.1541 8.76685 10.0469C8.90728 9.93975 8.98617 9.79441 8.98617 9.64285C8.98617 9.4913 8.90728 9.34596 8.76685 9.23879C8.62642 9.13163 8.43595 9.07143 8.23735 9.07143H3.74443C3.54583 9.07143 3.35536 9.13163 3.21493 9.23879C3.0745 9.34596 2.99561 9.4913 2.99561 9.64285C2.99561 9.79441 3.0745 9.93975 3.21493 10.0469C3.35536 10.1541 3.54583 10.2143 3.74443 10.2143Z" fill="white"/>
</g>
</g>
</svg>
