<svg width="16" height="17" viewBox="0 0 16 17" fill="none" xmlns="http://www.w3.org/2000/svg">
<g id="Container">
<g id="Container_2">
<mask id="mask0_1740_9752" style="mask-type:luminance" maskUnits="userSpaceOnUse" x="0" y="0" width="16" height="17">
<g id="Text input">
<path id="Vector" d="M4.18153 0.5H16V11.6386L10.2097 5.84834L9.10487 6.95319L5.97622 3.82456L6.24222 2.10775L4.18153 0.5ZM5.34834 10.7097L6.45319 9.60487L3.32456 6.47622L1.60775 6.74222L0 4.68153V16.5H11.1386L5.34834 10.7097Z" fill="white"/>
</g>
</mask>
<g mask="url(#mask0_1740_9752)">
<path id="Vector_2" d="M3.29236 15.4174C2.68217 16.0276 1.69283 16.0276 1.08264 15.4174C0.472453 14.8072 0.472453 13.8179 1.08264 13.2077L7.37261 6.91768C7.78514 6.50515 7.97836 5.92462 7.90539 5.34581C7.76545 4.23574 8.12158 3.07512 8.97398 2.22271C10.0444 1.15228 11.6008 0.865088 12.9328 1.35953L13.1527 1.57946L11.2011 3.53106C10.7055 4.02668 10.6961 4.84731 11.2011 5.33334C11.6905 5.80437 12.469 5.79868 12.9515 5.31628L14.9205 3.34721L15.1405 3.56715C15.6349 4.89918 15.3477 6.45553 14.2773 7.52599C13.4249 8.3784 12.2643 8.73453 11.1542 8.59459C10.5754 8.52162 9.99486 8.71484 9.58236 9.12737L3.29236 15.4174Z" stroke="#545454" stroke-miterlimit="10"/>
</g>
</g>
<path id="Vector_3" d="M3.97763 4.47763L9.10481 9.60481M3.97763 4.47763L2.40875 4.72069L0.839844 2.70984L2.20984 1.33984L4.22072 2.90872L3.97763 4.47763ZM7.99997 10.7097L12.7076 15.4173C13.3178 16.0275 14.3071 16.0275 14.9173 15.4173C15.5275 14.8072 15.5275 13.8178 14.9173 13.2076L10.2097 8.49997L7.99997 10.7097Z" stroke="#545454" stroke-miterlimit="10"/>
</g>
</svg>
