<svg width="24" height="24" viewBox="0 0 24 24" fill="none" xmlns="http://www.w3.org/2000/svg">
<g id="Group">
<g id="Layer 2">
<path id="Vector" d="M5.14286 13.7143H1.71429C0.767512 13.7143 0 14.4818 0 15.4286V22.2857C0 23.2325 0.767512 24 1.71429 24H5.14286C6.08963 24 6.85714 23.2325 6.85714 22.2857V15.4286C6.85714 14.4818 6.08963 13.7143 5.14286 13.7143Z" fill="#393F4B"/>
<path id="Vector_2" d="M13.7141 6.85712H10.2856C9.3388 6.85712 8.57129 7.62463 8.57129 8.5714V22.2857C8.57129 23.2325 9.3388 24 10.2856 24H13.7141C14.6609 24 15.4284 23.2325 15.4284 22.2857V8.5714C15.4284 7.62463 14.6609 6.85712 13.7141 6.85712Z" fill="#393F4B"/>
<path id="Vector_3" d="M22.2859 0H18.8574C17.9106 0 17.1431 0.767512 17.1431 1.71429V22.2857C17.1431 23.2325 17.9106 24 18.8574 24H22.2859C23.2327 24 24.0002 23.2325 24.0002 22.2857V1.71429C24.0002 0.767512 23.2327 0 22.2859 0Z" fill="#393F4B"/>
</g>
</g>
</svg>
