<svg width="24" height="24" viewBox="0 0 24 24" fill="none" xmlns="http://www.w3.org/2000/svg">
<g id="Group">
<g id="Layer 2">
<path id="Vector" d="M5.14286 13.7143H1.71429C0.767512 13.7143 0 14.4818 0 15.4286V22.2857C0 23.2325 0.767512 24 1.71429 24H5.14286C6.08963 24 6.85714 23.2325 6.85714 22.2857V15.4286C6.85714 14.4818 6.08963 13.7143 5.14286 13.7143Z" fill="#0039BD"/>
<path id="Vector_2" d="M13.7151 6.85715H10.2866C9.33978 6.85715 8.57227 7.62466 8.57227 8.57143V22.2857C8.57227 23.2325 9.33978 24 10.2866 24H13.7151C14.6619 24 15.4294 23.2325 15.4294 22.2857V8.57143C15.4294 7.62466 14.6619 6.85715 13.7151 6.85715Z" fill="#0039BD"/>
<path id="Vector_3" d="M22.2854 0H18.8569C17.9101 0 17.1426 0.767512 17.1426 1.71429V22.2857C17.1426 23.2325 17.9101 24 18.8569 24H22.2854C23.2322 24 23.9997 23.2325 23.9997 22.2857V1.71429C23.9997 0.767512 23.2322 0 22.2854 0Z" fill="#0039BD"/>
</g>
</g>
</svg>
