<svg width="24" height="24" viewBox="0 0 24 24" fill="none" xmlns="http://www.w3.org/2000/svg">
<g id="Group">
<path id="Vector" d="M6.69455 10.1417H16.0419C17.0524 10.1417 17.684 9.00788 17.0524 8.25197L12.3788 0.566929C11.8735 -0.188976 10.7367 -0.188976 10.2314 0.566929L5.55771 8.25197C5.05245 9.13386 5.68403 10.1417 6.69455 10.1417Z" fill="#393F4B"/>
<path id="Vector_2" d="M18.3156 24C21.4549 24 23.9998 21.4617 23.9998 18.3307C23.9998 15.1996 21.4549 12.6614 18.3156 12.6614C15.1763 12.6614 12.6313 15.1996 12.6313 18.3307C12.6313 21.4617 15.1763 24 18.3156 24Z" fill="#393F4B"/>
<path id="Vector_3" d="M8.84211 13.2914H1.26316C0.631579 13.2914 0 13.9213 0 14.5512V22.1103C0 22.7402 0.631579 23.3701 1.26316 23.3701H8.84211C9.47369 23.3701 10.1053 22.7402 10.1053 22.1103V14.5512C10.1053 13.9213 9.47369 13.2914 8.84211 13.2914Z" fill="#393F4B"/>
</g>
</svg>
