<svg width="24" height="24" viewBox="0 0 24 24" fill="none" xmlns="http://www.w3.org/2000/svg">
<g id="Group">
<path id="Vector" d="M6.69553 10.1417H16.0429C17.0534 10.1417 17.685 9.00788 17.0534 8.25197L12.3797 0.566929C11.8745 -0.188976 10.7376 -0.188976 10.2324 0.566929L5.55869 8.25197C5.05342 9.13386 5.685 10.1417 6.69553 10.1417Z" fill="#0039BD"/>
<path id="Vector_2" d="M18.3151 24C21.4544 24 23.9993 21.4618 23.9993 18.3307C23.9993 15.1996 21.4544 12.6614 18.3151 12.6614C15.1758 12.6614 12.6309 15.1996 12.6309 18.3307C12.6309 21.4618 15.1758 24 18.3151 24Z" fill="#0039BD"/>
<path id="Vector_3" d="M8.84211 13.2914H1.26316C0.631579 13.2914 0 13.9213 0 14.5512V22.1103C0 22.7402 0.631579 23.3701 1.26316 23.3701H8.84211C9.47369 23.3701 10.1053 22.7402 10.1053 22.1103V14.5512C10.1053 13.9213 9.47369 13.2914 8.84211 13.2914Z" fill="#0039BD"/>
</g>
</svg>
