<svg width="28" height="24" viewBox="0 0 28 24" fill="none" xmlns="http://www.w3.org/2000/svg">
<g id="Group">
<path id="Vector" d="M13.7519 9.34753C16.3332 9.34753 18.4257 7.255 18.4257 4.67373C18.4257 2.09247 16.3332 -6.10352e-05 13.7519 -6.10352e-05C11.1707 -6.10352e-05 9.07812 2.09247 9.07812 4.67373C9.07812 7.255 11.1707 9.34753 13.7519 9.34753Z" fill="#0039BD"/>
<path id="Vector_2" d="M23.2086 9.34754C24.8404 9.34754 26.1633 8.02468 26.1633 6.39284C26.1633 4.761 24.8404 3.43814 23.2086 3.43814C21.5768 3.43814 20.2539 4.761 20.2539 6.39284C20.2539 8.02468 21.5768 9.34754 23.2086 9.34754Z" fill="#0039BD"/>
<path id="Vector_3" d="M4.29845 9.34754C5.93028 9.34754 7.25315 8.02468 7.25315 6.39284C7.25315 4.761 5.93028 3.43814 4.29845 3.43814C2.66661 3.43814 1.34375 4.761 1.34375 6.39284C1.34375 8.02468 2.66661 9.34754 4.29845 9.34754Z" fill="#0039BD"/>
<path id="Vector_4" d="M7.20893 12.0008C6.04585 11.0479 4.99253 11.174 3.64771 11.174C1.63637 11.174 0 12.8007 0 14.7997V20.6667C0 21.5348 0.70859 22.2407 1.57996 22.2407C5.34188 22.2407 4.88868 22.3088 4.88868 22.0785C4.88868 17.9212 4.39627 14.8724 7.20893 12.0008Z" fill="#0039BD"/>
<path id="Vector_5" d="M15.0324 11.1961C12.6835 11.0001 10.6418 11.1983 8.88071 12.6519C5.9337 15.0124 6.50084 18.1908 6.50084 22.079C6.50084 23.1077 7.33782 23.9603 8.38217 23.9603C19.7219 23.9603 20.1732 24.3261 20.8456 22.837C21.0662 22.3334 21.0057 22.4935 21.0057 17.676C21.0057 13.8496 17.6925 11.1961 15.0324 11.1961ZM23.8583 11.1746C22.5062 11.1746 21.4586 11.0497 20.2971 12.0013C23.0888 14.8516 22.6174 17.6924 22.6174 22.079C22.6174 22.3108 22.2412 22.2413 25.8697 22.2413C26.7722 22.2413 27.5061 21.5101 27.5061 20.6113V14.8002C27.5061 12.8013 25.8697 11.1746 23.8583 11.1746Z" fill="#0039BD"/>
</g>
</svg>
