<svg width="28" height="24" viewBox="0 0 28 24" fill="none" xmlns="http://www.w3.org/2000/svg">
<g id="Group">
<path id="Vector" d="M13.7529 9.34759C16.3342 9.34759 18.4267 7.25506 18.4267 4.6738C18.4267 2.09253 16.3342 0 13.7529 0C11.1716 0 9.0791 2.09253 9.0791 4.6738C9.0791 7.25506 11.1716 9.34759 13.7529 9.34759Z" fill="#393F4B"/>
<path id="Vector_2" d="M23.2076 9.34763C24.8395 9.34763 26.1623 8.02477 26.1623 6.39293C26.1623 4.7611 24.8395 3.43823 23.2076 3.43823C21.5758 3.43823 20.2529 4.7611 20.2529 6.39293C20.2529 8.02477 21.5758 9.34763 23.2076 9.34763Z" fill="#393F4B"/>
<path id="Vector_3" d="M4.29796 9.34763C5.9298 9.34763 7.25266 8.02477 7.25266 6.39293C7.25266 4.7611 5.9298 3.43823 4.29796 3.43823C2.66613 3.43823 1.34326 4.7611 1.34326 6.39293C1.34326 8.02477 2.66613 9.34763 4.29796 9.34763Z" fill="#393F4B"/>
<path id="Vector_4" d="M7.20893 12.0009C6.04585 11.048 4.99253 11.1741 3.64771 11.1741C1.63637 11.1741 0 12.8008 0 14.7998V20.6667C0 21.5349 0.70859 22.2408 1.57996 22.2408C5.34188 22.2408 4.88868 22.3089 4.88868 22.0786C4.88868 17.9212 4.39627 14.8725 7.20893 12.0009Z" fill="#393F4B"/>
<path id="Vector_5" d="M15.0334 11.1961C12.6844 11.0002 10.6427 11.1983 8.88169 12.6519C5.93467 15.0125 6.50181 18.1908 6.50181 22.079C6.50181 23.1078 7.3388 23.9604 8.38315 23.9604C19.7229 23.9604 20.1742 24.3262 20.8466 22.8371C21.0671 22.3335 21.0067 22.4935 21.0067 17.676C21.0067 13.8496 17.6935 11.1961 15.0334 11.1961ZM23.8593 11.1746C22.5071 11.1746 21.4596 11.0497 20.2981 12.0014C23.0898 14.8516 22.6184 17.6924 22.6184 22.079C22.6184 22.3108 22.2421 22.2413 25.8707 22.2413C26.7732 22.2413 27.507 21.5101 27.507 20.6114V14.8003C27.507 12.8013 25.8707 11.1746 23.8593 11.1746Z" fill="#393F4B"/>
</g>
</svg>
