<svg width="24" height="24" viewBox="0 0 24 24" fill="none" xmlns="http://www.w3.org/2000/svg">
<g id="Group">
<path id="Vector" fill-rule="evenodd" clip-rule="evenodd" d="M2.66133 24H7.84931C8.5549 23.9992 9.23137 23.7186 9.73029 23.2197C10.2292 22.7207 10.5099 22.0443 10.5106 21.3387V16.15C10.5097 15.4445 10.229 14.7682 9.73007 14.2694C9.23116 13.7707 8.55479 13.4901 7.84931 13.4894H2.66133C1.95585 13.4901 1.27947 13.7706 0.780555 14.2694C0.281641 14.7682 0.000930563 15.4445 0 16.15L0 21.3387C0.000781651 22.0443 0.281422 22.7207 0.780348 23.2197C1.27927 23.7186 1.95574 23.9992 2.66133 24ZM18.75 0C17.7116 0 16.6966 0.307907 15.8333 0.884785C14.9699 1.46166 14.297 2.2816 13.8996 3.24091C13.5023 4.20022 13.3983 5.25582 13.6009 6.27422C13.8034 7.29262 14.3035 8.22809 15.0377 8.96231C15.7719 9.69654 16.7074 10.1965 17.7258 10.3991C18.7442 10.6017 19.7998 10.4977 20.7591 10.1004C21.7184 9.70301 22.5383 9.0301 23.1152 8.16674C23.6921 7.30339 24 6.28835 24 5.25C23.9983 3.85813 23.4447 2.52374 22.4605 1.53954C21.4763 0.555336 20.1419 0.00167468 18.75 0ZM2.66133 10.5106H7.84931C8.55488 10.5098 9.2313 10.2291 9.73021 9.73021C10.2291 9.2313 10.5098 8.55488 10.5106 7.84931V2.66095C10.5098 1.95543 10.2291 1.27905 9.73017 0.780202C9.23126 0.281354 8.55484 0.000769082 7.84931 0L2.66133 0C1.9558 0.000769082 1.27939 0.281354 0.780467 0.780202C0.281548 1.27905 0.000868503 1.95543 0 2.66095L0 7.84931C0.000855931 8.55488 0.28152 9.2313 0.78043 9.73021C1.27934 10.2291 1.95576 10.5098 2.66133 10.5106ZM21.3387 13.4894H16.1504C15.4449 13.4901 14.7685 13.7706 14.2696 14.2694C13.7707 14.7682 13.49 15.4445 13.489 16.15V21.3387C13.4898 22.0443 13.7705 22.7207 14.2694 23.2197C14.7683 23.7186 15.4448 23.9992 16.1504 24H21.3387C22.0442 23.9992 22.7207 23.7185 23.2196 23.2196C23.7185 22.7207 23.9992 22.0442 24 21.3387V16.15C23.999 15.4445 23.7183 14.7683 23.2194 14.2695C22.7205 13.7707 22.0441 13.4902 21.3387 13.4894Z" fill="#393F4B"/>
</g>
</svg>
