<svg width="22" height="24" viewBox="0 0 22 24" fill="none" xmlns="http://www.w3.org/2000/svg">
<g id="Group">
<path id="Vector" fill-rule="evenodd" clip-rule="evenodd" d="M21.7674 4.18605V19.814C21.7674 22.1257 19.8932 24 17.5814 24H4.18605C1.87421 24 0 22.1257 0 19.814V4.18605C0 1.87421 1.87421 0 4.18605 0H17.5814C19.8932 0 21.7674 1.87421 21.7674 4.18605ZM16.4651 8.93023H5.30233C4.84019 8.93023 4.46512 9.3053 4.46512 9.76744C4.46512 10.2296 4.84019 10.6047 5.30233 10.6047H16.4651C16.9273 10.6047 17.3023 10.2296 17.3023 9.76744C17.3023 9.3053 16.9273 8.93023 16.4651 8.93023ZM16.4651 13.3953H5.30233C4.84019 13.3953 4.46512 13.7704 4.46512 14.2326C4.46512 14.6947 4.84019 15.0698 5.30233 15.0698H16.4651C16.9273 15.0698 17.3023 14.6947 17.3023 14.2326C17.3023 13.7704 16.9273 13.3953 16.4651 13.3953ZM10.8837 4.46512H5.30233C4.84019 4.46512 4.46512 4.84019 4.46512 5.30233C4.46512 5.76447 4.84019 6.13953 5.30233 6.13953H10.8837C11.3459 6.13953 11.7209 5.76447 11.7209 5.30233C11.7209 4.84019 11.3459 4.46512 10.8837 4.46512ZM16.4651 17.8605H5.30233C4.84019 17.8605 4.46512 18.2355 4.46512 18.6977C4.46512 19.1598 4.84019 19.5349 5.30233 19.5349H16.4651C16.9273 19.5349 17.3023 19.1598 17.3023 18.6977C17.3023 18.2355 16.9273 17.8605 16.4651 17.8605Z" fill="#0039BD"/>
</g>
</svg>
