<svg width="32" height="32" viewBox="0 0 32 32" fill="none" xmlns="http://www.w3.org/2000/svg">
<path id="Vector" d="M27.3137 4.68631C24.2917 1.66431 20.2738 0 16 0C11.7262 0 7.70831 1.66431 4.68625 4.68631C1.66431 7.70831 0 11.7262 0 16C0 20.2738 1.66431 24.2917 4.68625 27.3137C7.70831 30.3357 11.7262 32 16 32C20.2738 32 24.2917 30.3357 27.3137 27.3137C30.3357 24.2917 32 20.2738 32 16C32 11.7262 30.3357 7.70831 27.3137 4.68631ZM16 30.125C11.8207 30.125 8.06019 28.2999 5.47175 25.4056C7.07644 21.1514 11.1842 18.125 16 18.125C12.8934 18.125 10.375 15.6066 10.375 12.5C10.375 9.39338 12.8934 6.875 16 6.875C19.1066 6.875 21.625 9.39338 21.625 12.5C21.625 15.6066 19.1066 18.125 16 18.125C20.8158 18.125 24.9236 21.1514 26.5282 25.4056C23.9398 28.2999 20.1793 30.125 16 30.125Z" fill="#545454"/>
</svg>
