<svg width="24" height="24" viewBox="0 0 24 24" fill="none" xmlns="http://www.w3.org/2000/svg">
<g id="ticket +  with backgroun">
<path id="Vector" d="M23.6059 1.94356C23.5667 1.10469 22.8954 0.433424 22.0566 0.39421L13.6682 0.00183C13.4419 -0.00891824 13.2159 0.0277689 13.0047 0.109536C12.7934 0.191302 12.6016 0.316342 12.4416 0.476624L0.476535 12.4417C0.171412 12.7469 0 13.1608 0 13.5923C0 14.0239 0.171412 14.4377 0.476535 14.7429L9.25722 23.5235C9.40814 23.6748 9.58748 23.7948 9.78493 23.8766C9.98238 23.9584 10.194 24.0003 10.4078 24C10.6215 24.0003 10.8331 23.9583 11.0306 23.8765C11.2281 23.7947 11.4074 23.6748 11.5584 23.5235L23.5233 11.5585C23.8471 11.2347 24.0196 10.7894 23.9982 10.3319L23.6059 1.94356ZM20.5408 6.1901C19.7867 6.94419 18.564 6.94419 17.8099 6.1901C17.0559 5.43601 17.0559 4.21331 17.8099 3.45922C18.564 2.70513 19.7867 2.70513 20.5408 3.45922C21.2949 4.21331 21.295 5.43593 20.5408 6.1901Z" fill="#0039BD"/>
</g>
</svg>
