<svg width="39" height="44" viewBox="0 0 39 44" fill="none" xmlns="http://www.w3.org/2000/svg">
<g id="Group">
<path id="Vector" d="M19.3838 25.9175C14.3725 25.9175 10.2949 29.9733 10.2949 34.9588C10.2949 39.9444 14.3725 43.9996 19.3838 43.9996C24.3951 43.9996 28.4727 39.9439 28.4727 34.9588C28.4727 29.9738 24.3951 25.9175 19.3838 25.9175ZM15.2668 40.7227V40.3681C15.2671 40.0471 15.3953 39.7394 15.6234 39.5124C15.8515 39.2854 16.1609 39.1577 16.4835 39.1573H22.2841C22.6068 39.1577 22.9161 39.2854 23.1442 39.5124C23.3723 39.7394 23.5006 40.0471 23.5008 40.3681V40.7227C22.3003 41.5782 20.8606 42.0382 19.3838 42.0382C17.907 42.0382 16.4673 41.5782 15.2668 40.7227ZM25.1805 39.0504C24.6761 37.9577 23.5689 37.1956 22.2836 37.1956H16.483C15.1978 37.1956 14.0905 37.9577 13.5862 39.0504C12.7279 37.8569 12.2664 36.4262 12.2664 34.9588C12.2664 31.0551 15.4591 27.8792 19.3833 27.8792C23.3076 27.8792 26.5002 31.0551 26.5002 34.9588C26.5002 36.4262 26.0387 37.8569 25.1805 39.0504ZM19.3838 3.39624C17.4059 3.39624 15.7973 4.99695 15.7973 6.96401C15.7973 8.93106 17.4064 10.5318 19.3838 10.5318C21.3612 10.5318 22.9704 8.93106 22.9704 6.96401C22.9704 4.99695 21.3612 3.39624 19.3838 3.39624ZM19.3838 8.57011C18.4935 8.57011 17.7693 7.8497 17.7693 6.96401C17.7693 6.07832 18.494 5.3579 19.3838 5.3579C20.2737 5.3579 20.9984 6.07832 20.9984 6.96401C20.9984 7.8497 20.2737 8.57011 19.3838 8.57011Z" fill="#6380F6"/>
<path id="Vector_2" d="M19.3834 0C14.3721 0 10.2945 4.05573 10.2945 9.04079C10.2945 14.0259 14.3721 18.0821 19.3834 18.0821C24.3948 18.0821 28.4723 14.0263 28.4723 9.04079C28.4723 4.05524 24.3948 0 19.3834 0ZM15.2664 14.8051V14.4506C15.2667 14.1296 15.3949 13.8218 15.623 13.5948C15.8512 13.3678 16.1605 13.2401 16.4831 13.2397H22.2837C22.6064 13.2401 22.9157 13.3678 23.1438 13.5948C23.3719 13.8218 23.5002 14.1296 23.5005 14.4506V14.8051C22.2999 15.6606 20.8602 16.1207 19.3834 16.1207C17.9067 16.1207 16.4669 15.6606 15.2664 14.8051ZM25.1801 13.1328C24.6758 12.0402 23.5685 11.2781 22.2833 11.2781H16.4826C15.1974 11.2781 14.0901 12.0402 13.5858 13.1328C12.7274 11.9392 12.266 10.5084 12.266 9.04079C12.266 5.13758 15.4587 1.96166 19.3829 1.96166C23.3072 1.96166 26.4999 5.13758 26.4999 9.04079C26.4999 10.5655 26.0078 11.9759 25.1801 13.1328ZM19.3834 29.3145C17.4055 29.3145 15.7969 30.9152 15.7969 32.8823C15.7969 34.8494 17.406 36.4501 19.3834 36.4501C21.3609 36.4501 22.97 34.8494 22.97 32.8823C22.97 30.9152 21.3609 29.3145 19.3834 29.3145ZM19.3834 34.4884C18.4931 34.4884 17.7689 33.768 17.7689 32.8823C17.7689 31.9966 18.4936 31.2762 19.3834 31.2762C20.2733 31.2762 20.998 31.9966 20.998 32.8823C20.998 33.768 20.2733 34.4884 19.3834 34.4884ZM0.0234375 11.1152H3.90135C1.64068 14.2999 0.425148 18.1019 0.421286 22.0005C0.421286 26.372 1.95944 30.6333 4.75227 33.999L5.37936 34.7552L6.90026 33.5066L6.27267 32.7504C3.76657 29.7224 2.39533 25.9227 2.39328 22.0005C2.39328 18.4793 3.5109 15.0381 5.55437 12.1878V16.6167H7.52636V9.1531H0.0234375V11.1148V11.1152ZM34.8655 32.8857C37.1262 29.7011 38.3417 25.8991 38.3456 22.0005C38.3456 17.6289 36.8074 13.3677 34.0146 10.002L33.3875 9.24579L31.8666 10.4944L32.4942 11.2506C35.0003 14.2786 36.3715 18.0783 36.3736 22.0005C36.3736 25.5217 35.256 28.9629 33.2125 31.8132V27.3843H31.2405V34.8479H38.7434V32.8862L34.8655 32.8857Z" fill="#6380F6"/>
</g>
</svg>
