<svg width="45" height="44" viewBox="0 0 45 44" fill="none" xmlns="http://www.w3.org/2000/svg">
<g id="Group">
<path id="Vector" d="M1.71575 22C1.71575 10.8054 10.8288 1.69231 22.0234 1.69231V0C9.88959 0 0.0234375 9.86615 0.0234375 22H1.71575ZM44.0234 22H42.3311C42.3311 33.1946 33.2181 42.3077 22.0234 42.3077V44C34.1573 44 44.0234 34.1338 44.0234 22ZM23.7157 0H25.4081V1.69231H23.7157V0ZM18.6388 42.3077H20.3311V44H18.6388V42.3077ZM26.5757 16.9231L20.1619 24.8938L17.3442 22.0931L16.1004 23.3285L19.6119 26.8231C19.7811 26.9838 20.0011 27.0769 20.2296 27.0769H20.2804C20.5257 27.06 20.7627 26.9415 20.915 26.7469L27.9381 18.0146L26.5673 16.9231H26.5757Z" fill="#D40000"/>
<path id="Vector_2" d="M38.9458 22.0002C38.9458 12.6671 31.3558 5.07715 22.0227 5.07715C12.6896 5.07715 5.09961 12.6671 5.09961 22.0002C5.09961 31.3333 12.6896 38.9233 22.0227 38.9233C31.3558 38.9233 38.9458 31.3333 38.9458 22.0002ZM11.8688 22.0002C11.8688 16.3987 16.4211 11.8464 22.0227 11.8464C27.6242 11.8464 32.1765 16.3987 32.1765 22.0002C32.1765 27.6018 27.6242 32.1541 22.0227 32.1541C16.4211 32.1541 11.8688 27.6018 11.8688 22.0002Z" fill="#D40000"/>
</g>
</svg>
