<svg width="47" height="44" viewBox="0 0 47 44" fill="none" xmlns="http://www.w3.org/2000/svg">
<g id="Group">
<path id="Vector" d="M37.3589 12.412L29.7366 11.3044L26.3278 4.39751C25.0112 1.72957 21.204 1.73038 19.8879 4.39742L16.4791 11.3043L8.85683 12.412C5.91242 12.8398 4.7371 16.4607 6.86681 18.5368L12.3823 23.9131L11.0803 31.5043C10.5774 34.4368 13.6576 36.6735 16.2904 35.2898L23.1079 31.7054L29.9255 35.2898C32.5546 36.6718 35.6385 34.4364 35.1356 31.5043L33.8336 23.913L39.3492 18.5367C41.4793 16.4598 40.302 12.8397 37.3589 12.412ZM37.2005 16.3328L31.1056 22.2737C30.927 22.4479 30.7934 22.6629 30.7163 22.9002C30.6392 23.1375 30.6209 23.39 30.6631 23.6359L32.1019 32.0248C32.1741 32.4461 31.7358 32.7642 31.3576 32.5655L23.8239 28.6049C23.6031 28.4888 23.3573 28.4282 23.1078 28.4282C22.8583 28.4282 22.6125 28.4888 22.3917 28.6049L14.858 32.5655C14.4797 32.7644 14.0415 32.446 14.1137 32.0248L15.5525 23.6359C15.5947 23.39 15.5764 23.1375 15.4993 22.9002C15.4222 22.6629 15.2886 22.4479 15.11 22.2737L9.01509 16.3328C8.70895 16.0344 8.8764 15.5193 9.2994 15.4578L17.7223 14.2338C17.9692 14.198 18.2037 14.1026 18.4055 13.956C18.6074 13.8093 18.7706 13.6158 18.881 13.3921L22.6479 5.75957C22.837 5.37652 23.3786 5.37625 23.5678 5.75966L27.3347 13.3921C27.4451 13.6158 27.6083 13.8093 27.8102 13.956C28.012 14.1026 28.2465 14.198 28.4934 14.2338L36.9163 15.4578C37.3392 15.5193 37.5066 16.0345 37.2005 16.3328ZM12.1726 3.16764L10.3321 0.634417C9.83232 -0.0530613 8.87 -0.205634 8.18252 0.294104C7.49495 0.793662 7.34247 1.75608 7.84212 2.44365L9.68264 4.97678C10.1826 5.66462 11.1449 5.81656 11.8322 5.31709C12.5197 4.81763 12.6722 3.85521 12.1726 3.16764ZM6.06481 25.8691C5.80232 25.0609 4.93413 24.6182 4.12564 24.8811L1.08718 25.8684C0.278867 26.1311 -0.163431 26.9992 0.0991525 27.8076C0.362187 28.6172 1.23181 29.058 2.03832 28.7956L5.07679 27.8083C5.88519 27.5456 6.32748 26.6774 6.06481 25.8691ZM38.0331 0.294194C37.3456 -0.205363 36.3832 -0.0530614 35.8835 0.634507L34.043 3.16764C33.5434 3.85521 33.6959 4.81772 34.3834 5.31718C35.0713 5.81692 36.0336 5.66417 36.533 4.97687L38.3735 2.44374C38.873 1.75617 38.7207 0.793662 38.0331 0.294194ZM45.1282 25.8684L42.0898 24.8811C41.2815 24.618 40.4133 25.0608 40.1506 25.8691C39.8879 26.6774 40.3302 27.5457 41.1386 27.8083L44.1771 28.7956C44.9837 29.0579 45.8532 28.6171 46.1163 27.8076C46.3789 26.9993 45.9366 26.1311 45.1282 25.8684ZM23.1078 37.7988C22.2579 37.7988 21.5689 38.4878 21.5689 39.3377V42.4611C21.5689 43.311 22.2579 44 23.1078 44C23.9576 44 24.6466 43.311 24.6466 42.4611V39.3377C24.6467 38.4877 23.9577 37.7988 23.1078 37.7988Z" fill="#000C40"/>
</g>
</svg>
