<svg width="50" height="44" viewBox="0 0 50 44" fill="none" xmlns="http://www.w3.org/2000/svg">
<g id="Group">
<path id="Vector" d="M24.5235 0C12.3126 0 2.41374 9.84974 2.41374 22H0.703907C0.170362 22 -0.155029 22.584 0.127774 23.0343L3.43106 28.2934C3.69712 28.7169 4.31718 28.7169 4.58323 28.2934L7.88652 23.0343C8.16933 22.584 7.84403 22 7.31039 22H5.60065C5.60065 11.6177 14.0893 3.1711 24.5235 3.1711C29.4681 3.1711 33.9759 5.06795 37.3504 8.16887C37.6628 8.45598 38.1488 8.44227 38.4495 8.14306L39.5831 7.01508C39.9031 6.69673 39.8923 6.17784 39.5607 5.87158C35.6154 2.22786 30.3309 0 24.5235 0Z" fill="#12B76A"/>
<path id="Vector_2" d="M24.5233 43.9997C36.7342 43.9997 46.633 34.15 46.633 21.9997H48.3429C48.8764 21.9997 49.2018 21.4157 48.919 20.9654L45.6157 15.7064C45.3497 15.2828 44.7296 15.2828 44.4635 15.7064L41.1603 20.9654C40.8775 21.4157 41.2027 21.9997 41.7364 21.9997H43.4462C43.4462 32.382 34.9575 40.8286 24.5234 40.8286C19.5788 40.8286 15.071 38.9318 11.6965 35.8308C11.384 35.5437 10.8981 35.5574 10.5974 35.8566L9.46376 36.9846C9.14382 37.303 9.15454 37.8219 9.48615 38.1281C13.4314 41.7718 18.7159 43.9997 24.5233 43.9997Z" fill="#12B76A"/>
<g id="Group_2">
<path id="Vector_3" d="M20.0949 18.6663C20.0925 18.6598 20.0898 18.6533 20.0872 18.6469C20.0226 18.4894 19.9122 18.3547 19.7701 18.2599C19.6281 18.1652 19.4608 18.1148 19.2898 18.1152H19.2888C19.1147 18.115 18.9446 18.1675 18.8012 18.2656C18.6577 18.3637 18.5476 18.5029 18.4854 18.6647L16.0919 24.9177C16.0242 25.0947 16.0299 25.2912 16.1077 25.4641C16.1856 25.6369 16.3293 25.7719 16.5072 25.8393C16.6851 25.9068 16.8827 25.9011 17.0564 25.8236C17.2301 25.7461 17.3657 25.6031 17.4335 25.4261L17.8535 24.3288H20.7082L21.1236 25.4241C21.1751 25.5599 21.267 25.6769 21.387 25.7595C21.507 25.842 21.6494 25.8863 21.7953 25.8863C21.9114 25.8863 22.0258 25.8583 22.1286 25.8046C22.2314 25.751 22.3197 25.6733 22.3857 25.5782C22.4517 25.4832 22.4936 25.3736 22.5076 25.2589C22.5217 25.1442 22.5077 25.0279 22.4666 24.9198L20.0949 18.6663ZM18.4002 22.9003L19.2873 20.5826L20.1663 22.9003H18.4002ZM27.0409 24.4523H25.5268V18.8294C25.5268 18.4349 25.2055 18.1152 24.809 18.1152C24.4125 18.1152 24.0913 18.4349 24.0913 18.8294V25.1665C24.0913 25.561 24.4125 25.8807 24.809 25.8807H27.0409C27.4374 25.8807 27.7587 25.561 27.7587 25.1665C27.7587 24.772 27.4373 24.4523 27.0409 24.4523ZM32.2847 24.4523H30.7706V18.8294C30.7706 18.4349 30.4493 18.1152 30.0528 18.1152C29.6563 18.1152 29.335 18.4349 29.335 18.8294V25.1665C29.335 25.561 29.6563 25.8807 30.0528 25.8807H32.2847C32.6812 25.8807 33.0025 25.561 33.0025 25.1665C33.0025 24.772 32.6811 24.4523 32.2847 24.4523Z" fill="#12B76A"/>
</g>
</g>
</svg>
