<svg width="24" height="25" viewBox="0 0 24 25" fill="none" xmlns="http://www.w3.org/2000/svg">
<g id="Frame">
<g id="Group">
<path id="Vector" d="M18 13.4321V17.2583H7.14286C6.84 17.2583 6.54857 17.373 6.33714 17.5808L4.28571 19.5376V6.87291H11.1429V4.68652H4.28571C3.02286 4.68652 2 5.66493 2 6.87291V20.8603C2 21.5217 2.41714 22.1175 3.05714 22.3744C3.27429 22.4564 3.49714 22.5001 3.71429 22.5001C4.16 22.5001 4.6 22.3307 4.92571 22.0191L7.61714 19.4447H18C19.2629 19.4447 20.2857 18.4662 20.2857 17.2583V13.4321H18Z" fill="#4F4F4F"/>
<path id="Vector_2" d="M14.5713 11.8643C14.1165 11.8642 13.6804 11.6913 13.3589 11.3837C13.0373 11.0761 12.8566 10.659 12.8564 10.224V4.13979C12.8564 3.23572 13.6256 2.5 14.5707 2.5H20.285C21.2302 2.5 21.9993 3.23572 21.9993 4.13979V10.224C21.9997 10.521 21.9155 10.8126 21.7559 11.0674C21.5962 11.3222 21.3671 11.5306 21.093 11.6703C20.8196 11.8106 20.5114 11.8771 20.2014 11.8627C19.8915 11.8483 19.5915 11.7534 19.3336 11.5883L17.4279 10.3726L15.5216 11.5883C15.2404 11.7684 14.9097 11.8644 14.5713 11.8643ZM15.1422 4.68639V9.20292L16.477 8.35187C16.7583 8.17194 17.0891 8.07585 17.4275 8.07575C17.7659 8.07565 18.0967 8.17156 18.3782 8.35133L19.7136 9.20292V4.68639H15.1422Z" fill="#4F4F4F"/>
</g>
</g>
</svg>
