<svg width="24" height="25" viewBox="0 0 24 25" fill="none" xmlns="http://www.w3.org/2000/svg">
<g id="Frame">
<g id="Group">
<path id="Vector" d="M2.63543 22.5C2.55193 22.5001 2.46925 22.4836 2.39213 22.4516C2.31501 22.4196 2.24498 22.3727 2.18608 22.3135C2.10849 22.236 2.05232 22.1397 2.02304 22.0341C1.99375 21.9284 1.99236 21.8169 2.019 21.7106L3.21294 16.9183C3.2408 16.8063 3.29855 16.704 3.38001 16.6223L16.8205 3.18184C17.7295 2.27272 19.2093 2.27272 20.1185 3.18184L21.3176 4.3809C22.2268 5.2901 22.2268 6.76989 21.3176 7.67888L7.87722 21.1194C7.79568 21.2011 7.69332 21.2589 7.58127 21.2865L2.78903 22.4804C2.73893 22.4937 2.68729 22.5003 2.63547 22.5H2.63543ZM4.40361 17.3966L3.50813 20.9905L7.10206 20.095L20.4187 6.77919C20.8317 6.36617 20.8317 5.69286 20.4187 5.27984L19.2196 4.08078C18.8058 3.66696 18.1323 3.66772 17.7202 4.08078L4.40361 17.3966Z" fill="#4F4F4F"/>
<path id="Vector_2" d="M18.7991 9.93447C18.6362 9.93447 18.4733 9.8725 18.3495 9.74795L14.7514 6.1506C14.5028 5.902 14.5028 5.49924 14.7514 5.25079C14.9999 5.00234 15.4027 5.00234 15.6511 5.25079L19.2494 8.84909C19.4979 9.09754 19.4979 9.5003 19.2494 9.74875C19.1238 9.8725 18.9611 9.93447 18.7991 9.93447ZM7.42686 21.3067C7.264 21.3067 7.1013 21.2447 6.97751 21.12L3.37921 17.5219C3.13076 17.2733 3.13076 16.8705 3.37921 16.622C3.62765 16.3736 4.03045 16.3736 4.27906 16.622L7.87721 20.2203C8.12565 20.4688 8.12565 20.8716 7.87721 21.12C7.81816 21.1793 7.74797 21.2263 7.67068 21.2583C7.59339 21.2904 7.51053 21.3068 7.42686 21.3067Z" fill="#4F4F4F"/>
</g>
</g>
</svg>
