<svg width="24" height="25" viewBox="0 0 24 25" fill="none" xmlns="http://www.w3.org/2000/svg">
<g id="Frame">
<g id="Group">
<path id="Vector" d="M14.351 5.84267L3.3468 16.8593C3.29139 16.9149 3.2519 16.9844 3.23244 17.0605L2.01269 21.9614C1.99475 22.0341 1.99585 22.1102 2.01588 22.1824C2.03591 22.2546 2.0742 22.3204 2.12705 22.3734C2.20822 22.4544 2.31812 22.4999 2.43272 22.5C2.46807 22.5 2.50328 22.4956 2.53757 22.487L7.43327 21.2658C7.5094 21.2466 7.57888 21.2071 7.63429 21.1515L18.6395 10.1356L14.351 5.84267ZM21.3657 4.34056L20.1408 3.11436C19.3221 2.29481 17.8952 2.29562 17.0774 3.11436L15.5769 4.61647L19.8652 8.90924L21.3657 7.40718C21.7747 6.99797 21.9999 6.45327 21.9999 5.87397C21.9999 5.29467 21.7747 4.74997 21.3657 4.34056Z" fill="white"/>
</g>
</g>
</svg>
