<svg width="24" height="25" viewBox="0 0 24 25" fill="none" xmlns="http://www.w3.org/2000/svg">
<g id="Frame">
<g id="Group">
<path id="Vector" d="M20.2857 14.0488V17.2573C20.2857 18.4653 19.2629 19.4437 18 19.4437H7.61714L4.92571 22.0182C4.6 22.3297 4.16 22.4992 3.71429 22.4992C3.49714 22.4992 3.27429 22.4554 3.05714 22.3734C2.74457 22.2488 2.47746 22.0386 2.28938 21.7692C2.10129 21.4998 2.00062 21.1833 2 20.8594V6.87194C2 5.66396 3.02286 4.68555 4.28571 4.68555H10.5714V10.2226C10.5714 11.6273 11.3771 12.9228 12.7086 13.6115C13.2857 13.8957 13.9314 14.0488 14.5714 14.0488C15.36 14.0488 16.12 13.8301 16.7886 13.4092L17.4286 12.9993L18.0743 13.4147C18.731 13.8279 19.4997 14.0483 20.2857 14.0488Z" fill="white"/>
<path id="Vector_2" d="M22.0003 4.13979V10.2234C22.0003 10.8301 21.6517 11.3822 21.0917 11.6719C20.5374 11.9561 19.8631 11.9233 19.3317 11.5899L17.4289 10.371L15.5203 11.5899C15.2346 11.7703 14.9031 11.8632 14.5717 11.8632C14.2974 11.8632 14.0174 11.7976 13.766 11.6719C13.4918 11.5316 13.2625 11.3228 13.1025 11.0677C12.9425 10.8127 12.8578 10.5209 12.8574 10.2234V4.13979C12.8574 3.23791 13.6289 2.5 14.5717 2.5H20.286C21.2289 2.5 22.0003 3.23791 22.0003 4.13979Z" fill="white"/>
</g>
</g>
</svg>
