<svg width="24" height="25" viewBox="0 0 24 25" fill="none" xmlns="http://www.w3.org/2000/svg">
<g id="Frame">
<g id="Group">
<g id="Group_2">
<path id="Vector" d="M5.48303 2.50353C5.21766 2.49078 4.9518 2.51256 4.69169 2.56836C3.15734 2.87939 2 4.27525 2 5.95076V16.981C2 18.5069 2.96001 19.801 4.29002 20.2548L7.63038 21.9883C9.81373 23.121 12.2114 22.2731 13.4688 20.4283H15.3528C17.1964 20.4283 18.6911 18.8848 18.6911 16.981V15.6024C18.6911 15.2217 18.3921 14.9128 18.0235 14.9128C17.6548 14.9128 17.3558 15.2217 17.3558 15.6024V16.981C17.3556 17.2529 17.3036 17.5221 17.2028 17.7731C17.102 18.0242 16.9544 18.2523 16.7684 18.4444C16.5824 18.6364 16.3617 18.7887 16.1188 18.8925C15.8759 18.9963 15.6156 19.0496 15.3528 19.0493H14.1271C14.2721 18.57 14.3514 18.0552 14.3514 17.5145V9.89488C14.3514 8.00109 13.3404 6.25903 11.7254 5.42111L8.76005 3.88284H15.3528C15.6156 3.88252 15.8759 3.93577 16.1189 4.03955C16.3618 4.14333 16.5826 4.2956 16.7686 4.48766C16.9547 4.67973 17.1023 4.90782 17.2031 5.15892C17.3039 5.41003 17.3559 5.67921 17.3561 5.9511V7.32972C17.3561 7.71075 17.6548 8.01937 18.0235 8.01937C18.3921 8.01937 18.6911 7.71075 18.6911 7.32972V5.9511C18.6911 4.04732 17.1964 2.50388 15.3528 2.50388L5.48303 2.50353Z" fill="white"/>
<path id="Vector_2" d="M18.5226 13.9417C18.4708 13.8687 18.4334 13.7859 18.4125 13.698C18.3917 13.61 18.3878 13.5187 18.4011 13.4292C18.4144 13.3397 18.4447 13.2538 18.4901 13.1765C18.5355 13.0991 18.5953 13.0317 18.6659 12.9783L19.7529 12.1552H16.0196C15.6506 12.1552 15.3516 11.8465 15.3516 11.4658C15.3516 11.0852 15.6506 10.7762 16.0192 10.7762H19.7533L18.6666 9.95344C18.3693 9.72827 18.3049 9.29689 18.5233 8.98999C18.7416 8.6831 19.1589 8.61655 19.4563 8.84172L21.4533 10.3541C22.1809 10.9048 22.1809 12.0265 21.4533 12.5776L19.4563 14.09C19.3134 14.1982 19.1349 14.2433 18.9599 14.2155C18.785 14.1877 18.6278 14.0892 18.5229 13.9417H18.5226Z" fill="white"/>
</g>
</g>
</g>
</svg>
