<svg width="24" height="25" viewBox="0 0 24 25" fill="none" xmlns="http://www.w3.org/2000/svg">
<g id="Frame">
<g id="Group">
<g id="Group_2">
<path id="Vector" fill-rule="evenodd" clip-rule="evenodd" d="M5.44217 2.50353C5.17991 2.49079 4.91716 2.51257 4.66021 2.56835C3.14328 2.87939 2 4.27524 2 5.95075V16.981C2 18.5069 2.94862 19.801 4.26323 20.2548L7.56474 21.9883C9.72264 23.121 12.0919 22.2731 13.3345 20.4283H15.1967C17.019 20.4283 18.4959 18.8848 18.4959 16.981V15.6024C18.4959 15.2217 18.2006 14.9128 17.8359 14.9128C17.6601 14.9138 17.4918 14.987 17.3681 15.1163C17.2444 15.2456 17.1754 15.4205 17.1763 15.6024V16.981C17.1763 18.1235 16.29 19.0493 15.1967 19.0493H13.9854C14.1288 18.57 14.2071 18.0552 14.2071 17.5145V9.89487C14.2071 8.00109 13.2078 6.25903 11.6115 5.4211L8.68102 3.88283H15.1967C16.29 3.88283 17.1763 4.80869 17.1763 5.9511V7.32971C17.1763 7.71074 17.4716 8.01936 17.8363 8.01936C17.9234 8.01891 18.0095 8.00071 18.0898 7.96581C18.1701 7.93091 18.243 7.87998 18.3043 7.81594C18.3656 7.7519 18.4141 7.676 18.447 7.59257C18.4799 7.50915 18.4967 7.41983 18.4962 7.32971V5.9511C18.4962 4.04731 17.019 2.50387 15.1967 2.50387L5.44217 2.50353ZM3.31994 6.05523C3.31994 4.41731 4.87553 3.42766 6.1548 4.09938L11.0196 6.65351C12.1535 7.24902 12.8878 8.5035 12.8878 9.89487V17.5148C12.8878 20.2069 10.3133 21.8883 8.15771 20.7562L4.44422 18.8069C3.76492 18.4503 3.3196 17.6952 3.3196 16.851L3.31994 6.05523Z" fill="#4F4F4F"/>
<path id="Vector_2" d="M18.7069 12.9789C18.5656 13.0879 18.4714 13.2502 18.4449 13.4305C18.4183 13.6108 18.4614 13.7947 18.5649 13.9423C18.6157 14.0152 18.68 14.0769 18.754 14.1239C18.828 14.1709 18.9103 14.2022 18.9961 14.2159C19.0819 14.2297 19.1695 14.2258 19.2538 14.2042C19.3381 14.1827 19.4175 14.1441 19.4872 14.0906L21.4608 12.5786C22.1798 12.0275 22.1798 10.9055 21.4608 10.3544L19.4872 8.84236C19.4175 8.78887 19.3381 8.75024 19.2538 8.72873C19.1695 8.70721 19.0819 8.70323 18.9961 8.71703C18.9103 8.73082 18.828 8.76211 18.754 8.80908C18.68 8.85605 18.6157 8.91776 18.5649 8.99064C18.4614 9.13825 18.4182 9.32211 18.4447 9.50242C18.4712 9.68273 18.5653 9.84499 18.7066 9.95408L19.7805 10.7772H15.8574C15.4931 10.7772 15.1978 11.0858 15.1978 11.4668C15.1978 11.8479 15.4931 12.1558 15.8577 12.1558H19.7809L18.7069 12.9789Z" fill="#4F4F4F"/>
</g>
</g>
</g>
</svg>
