<svg width="16" height="16" viewBox="0 0 16 16" fill="none" xmlns="http://www.w3.org/2000/svg">
<g id="Container">
<path id="Vector" fill-rule="evenodd" clip-rule="evenodd" d="M7.79545 0C5.72827 0.00101848 3.74605 0.844974 2.28433 2.34642C0.822615 3.84787 0.000992537 5.88398 1.00529e-06 8.00734C-0.000634689 9.29239 0.300224 10.5587 0.877097 11.699C1.45397 12.8392 2.28987 13.8199 3.314 14.558C3.41417 14.6353 3.52843 14.6911 3.65 14.7222C3.77158 14.7533 3.89799 14.7589 4.02174 14.7389C4.14549 14.7188 4.26406 14.6734 4.3704 14.6054C4.47675 14.5373 4.5687 14.4481 4.64082 14.3428C4.71293 14.2376 4.76373 14.1186 4.7902 13.9928C4.81668 13.867 4.81828 13.737 4.79493 13.6106C4.77157 13.4842 4.72373 13.3639 4.65424 13.2568C4.58475 13.1497 4.49503 13.058 4.3904 12.9873C3.36159 12.2429 2.59012 11.1815 2.1877 9.95678C1.78529 8.73205 1.77281 7.40753 2.15207 6.17502C2.53134 4.94252 3.28266 3.86599 4.29725 3.10132C5.31184 2.33665 6.53705 1.92352 7.79545 1.92176C8.04355 1.92176 8.28148 1.82053 8.45691 1.64033C8.63235 1.46013 8.7309 1.21572 8.7309 0.960881C8.7309 0.706039 8.63235 0.461636 8.45691 0.281436C8.28148 0.101235 8.04355 0 7.79545 0ZM8.29685 15.998C10.273 15.866 12.1263 14.9668 13.4808 13.4829C14.8353 11.999 15.5897 10.0415 15.5909 8.00734C15.5915 6.84774 15.3465 5.70189 14.8729 4.64927C14.3992 3.59665 13.7084 2.66247 12.8481 1.91151C12.6593 1.74621 12.4142 1.66474 12.1668 1.68505C11.9195 1.70535 11.6901 1.82575 11.5292 2.01977C11.3682 2.21379 11.2889 2.46553 11.3087 2.71961C11.3284 2.9737 11.4457 3.20931 11.6346 3.37461C12.2888 3.94493 12.8143 4.65479 13.1744 5.45484C13.5346 6.25488 13.7208 7.12591 13.72 8.00734C13.7191 9.55317 13.1458 11.0408 12.1165 12.1685C11.0872 13.2962 9.67886 13.9796 8.17711 14.0801C7.92951 14.0964 7.69836 14.2131 7.53451 14.4045C7.37065 14.5958 7.28752 14.8462 7.3034 15.1006C7.31928 15.3549 7.43287 15.5923 7.61917 15.7606C7.80548 15.9289 8.04925 16.0143 8.29685 15.998Z" fill="#575757"/>
<path id="Vector_2" fill-rule="evenodd" clip-rule="evenodd" d="M15.0645 1.28125H11.5373C11.2892 1.28125 11.0512 1.38249 10.8758 1.56269C10.7004 1.74289 10.6018 1.98729 10.6018 2.24213V5.86529C10.6018 6.12013 10.7004 6.36454 10.8758 6.54474C11.0512 6.72494 11.2892 6.82617 11.5373 6.82617C11.7854 6.82617 12.0233 6.72494 12.1987 6.54474C12.3742 6.36454 12.4727 6.12013 12.4727 5.86529V3.20301H15.0645C15.3126 3.20301 15.5506 3.10178 15.726 2.92158C15.9014 2.74138 16 2.49697 16 2.24213C16 1.98729 15.9014 1.74289 15.726 1.56269C15.5506 1.38249 15.3126 1.28125 15.0645 1.28125ZM0.935454 15.3742H4.46274C4.71084 15.3742 4.94877 15.2729 5.1242 15.0927C5.29964 14.9125 5.39819 14.6681 5.39819 14.4133V10.7901C5.39819 10.5353 5.29964 10.2909 5.1242 10.1107C4.94877 9.93048 4.71084 9.82925 4.46274 9.82925C4.21464 9.82925 3.9767 9.93048 3.80127 10.1107C3.62584 10.2909 3.52728 10.5353 3.52728 10.7901V13.4524H0.935454C0.687356 13.4524 0.44942 13.5536 0.273988 13.7338C0.0985565 13.914 0 14.1584 0 14.4133C0 14.6681 0.0985565 14.9125 0.273988 15.0927C0.44942 15.2729 0.687356 15.3742 0.935454 15.3742Z" fill="#575757"/>
</g>
</svg>
