<svg width="16" height="17" viewBox="0 0 16 17" fill="none" xmlns="http://www.w3.org/2000/svg">
<path id="Vector" d="M14.7556 16.5L9.15556 10.9C8.71111 11.2556 8.2 11.537 7.62222 11.7444C7.04444 11.9519 6.42963 12.0556 5.77778 12.0556C4.16296 12.0556 2.7963 11.4963 1.67778 10.3778C0.559259 9.25926 0 7.89259 0 6.27778C0 4.66296 0.559259 3.2963 1.67778 2.17778C2.7963 1.05926 4.16296 0.5 5.77778 0.5C7.39259 0.5 8.75926 1.05926 9.87778 2.17778C10.9963 3.2963 11.5556 4.66296 11.5556 6.27778C11.5556 6.92963 11.4519 7.54444 11.2444 8.12222C11.037 8.7 10.7556 9.21111 10.4 9.65556L16 15.2556L14.7556 16.5ZM5.77778 10.2778C6.88889 10.2778 7.83333 9.88889 8.61111 9.11111C9.38889 8.33333 9.77778 7.38889 9.77778 6.27778C9.77778 5.16667 9.38889 4.22222 8.61111 3.44444C7.83333 2.66667 6.88889 2.27778 5.77778 2.27778C4.66667 2.27778 3.72222 2.66667 2.94444 3.44444C2.16667 4.22222 1.77778 5.16667 1.77778 6.27778C1.77778 7.38889 2.16667 8.33333 2.94444 9.11111C3.72222 9.88889 4.66667 10.2778 5.77778 10.2778Z" fill="#4F4F4F"/>
</svg>
