<svg width="59" height="59" viewBox="0 0 59 59" fill="none" xmlns="http://www.w3.org/2000/svg">
<g id="Container">
<circle id="Container_2" cx="29.5" cy="29.5" r="29.5" fill="#536BCD"/>
<path id="Vector" d="M21.6129 25.0586C21.6129 22.9213 22.3912 20.8716 23.7765 19.3603C25.1619 17.849 27.0408 17 29 17C30.9592 17 32.8381 17.849 34.2235 19.3603C35.6088 20.8716 36.3871 22.9213 36.3871 25.0586V27.5434C36.3871 28.1676 36.6142 28.7671 37.0195 29.2093L38.7136 31.0574C39.5371 31.9559 39.9998 33.1745 40 34.4451C40 35.1382 39.7476 35.803 39.2983 36.2931C38.849 36.7833 38.2396 37.0586 37.6043 37.0586H20.3957C19.7604 37.0586 19.151 36.7833 18.7017 36.2931C18.2524 35.803 18 35.1382 18 34.4451C18 33.1742 18.4633 31.9554 19.2876 31.0574L20.9805 29.2093C21.3858 28.7671 21.6129 28.1689 21.6129 27.5434V25.0586ZM20.1289 34.4451C20.1289 34.6061 20.2493 34.7362 20.3957 34.7362H37.6043C37.7519 34.7362 37.8711 34.6061 37.8711 34.4451C37.8711 33.7898 37.6326 33.1618 37.208 32.6986L35.5139 30.8518C34.7098 29.9742 34.2581 28.7842 34.2582 27.5434V25.0586C34.2582 23.5373 33.7042 22.0783 32.7181 21.0025C31.732 19.9268 30.3945 19.3225 29 19.3225C27.6055 19.3225 26.268 19.9268 25.2819 21.0025C24.2958 22.0783 23.7418 23.5373 23.7418 25.0586V27.5434C23.7419 28.7842 23.2902 29.9742 22.4861 30.8518L20.7909 32.6998C20.3674 33.1618 20.1289 33.7898 20.1289 34.4463V34.4451ZM25.227 39.8382C25.227 39.1978 25.7027 38.6775 26.2909 38.6775H31.7091C31.9854 38.6874 32.2474 38.814 32.4396 39.0307C32.6319 39.2474 32.7394 39.5372 32.7394 39.8388C32.7394 40.1403 32.6319 40.4301 32.4396 40.6468C32.2474 40.8635 31.9854 40.9902 31.7091 41H26.2909C26.151 41.0002 26.0124 40.9702 25.8831 40.9119C25.7538 40.8536 25.6364 40.768 25.5375 40.6601C25.4385 40.5521 25.3601 40.424 25.3066 40.283C25.2531 40.1419 25.2268 39.9908 25.227 39.8382Z" fill="#E0E6FD"/>
</g>
</svg>
