<svg width="30" height="30" viewBox="0 0 30 30" fill="none" xmlns="http://www.w3.org/2000/svg">
<path d="M3.94137 14.0586C3.94137 11.9213 4.7904 9.8716 6.30169 8.36032C7.81298 6.84903 9.86272 6 12 6C14.1373 6 16.187 6.84903 17.6983 8.36032C19.2096 9.8716 20.0586 11.9213 20.0586 14.0586V16.5434C20.0586 17.1676 20.3064 17.7671 20.7486 18.2093L22.5966 20.0574C23.495 20.9559 23.9998 22.1745 24 23.4451C24 24.1382 23.7246 24.803 23.2345 25.2931C22.7444 25.7833 22.0796 26.0586 21.3865 26.0586H2.61354C1.92039 26.0586 1.25562 25.7833 0.765489 25.2931C0.275355 24.803 0 24.1382 0 23.4451C0 22.1742 0.505367 20.9554 1.40462 20.0574L3.25145 18.2093C3.69364 17.7671 3.94137 17.1689 3.94137 16.5434V14.0586ZM2.32246 23.4451C2.32246 23.6061 2.45376 23.7362 2.61354 23.7362H21.3865C21.5475 23.7362 21.6775 23.6061 21.6775 23.4451C21.6775 22.7898 21.4174 22.1618 20.9542 21.6986L19.1061 19.8518C18.2289 18.9742 17.7361 17.7842 17.7362 16.5434V14.0586C17.7362 12.5373 17.1318 11.0783 16.0561 10.0025C14.9803 8.92681 13.5213 8.32246 12 8.32246C10.4787 8.32246 9.01966 8.92681 7.94392 10.0025C6.86818 11.0783 6.26383 12.5373 6.26383 14.0586V16.5434C6.26386 17.7842 5.7711 18.9742 4.89389 19.8518L3.04459 21.6998C2.58258 22.1618 2.32246 22.7898 2.32246 23.4463V23.4451ZM7.88398 28.8382C7.88398 28.1978 8.40297 27.6775 9.04459 27.6775H14.9554C15.2568 27.6874 15.5426 27.814 15.7523 28.0307C15.9621 28.2474 16.0793 28.5372 16.0793 28.8388C16.0793 29.1403 15.9621 29.4301 15.7523 29.6468C15.5426 29.8635 15.2568 29.9902 14.9554 30H9.04459C8.89197 30.0002 8.74081 29.9702 8.59978 29.9119C8.45874 29.8536 8.3306 29.768 8.22268 29.6601C8.11476 29.5521 8.02918 29.424 7.97085 29.283C7.91252 29.1419 7.88382 28.9908 7.88398 28.8382Z" fill="#545454"/>
<ellipse cx="17.9744" cy="12" rx="5.99149" ry="6" fill="#6380F6"/>
</svg>
