<svg width="20" height="17" viewBox="0 0 20 17" fill="none" xmlns="http://www.w3.org/2000/svg">
<g id="Vertical container">
<path id="Vector" fill-rule="evenodd" clip-rule="evenodd" d="M18.725 11.4911C18.725 13.3167 17.2417 14.7993 15.4206 14.7993H4.57944C2.75832 14.7993 1.27501 13.3166 1.27501 11.4911V4.58481C1.2746 3.99643 1.43204 3.41874 1.73087 2.91211L7.02069 8.20818C7.81209 9.00284 8.87188 9.4407 10.0011 9.4407C11.1281 9.4407 12.1879 9.00284 12.9793 8.20818L18.2691 2.91211C18.5679 3.41873 18.7254 3.99643 18.7249 4.58481L18.725 11.4911ZM15.4206 1.27652H4.57944C3.82739 1.27652 3.13316 1.53134 2.57781 1.95531L7.92086 7.30699C8.47393 7.85835 9.21206 8.16418 10.0011 8.16418C10.7879 8.16418 11.5261 7.85835 12.0791 7.30699L17.4221 1.95531C16.8668 1.53134 16.1727 1.27652 15.4206 1.27652ZM15.4206 0H4.57944C2.05485 0 0 2.05728 0 4.58485V11.4911C0 14.021 2.05485 16.076 4.57944 16.076H15.4206C17.9451 16.076 20 14.021 20 11.4911V4.58481C20 2.05724 17.9451 0 15.4206 0Z" fill="#A4A4A4" fill-opacity="0.5"/>
</g>
</svg>
