<svg width="24" height="24" viewBox="0 0 24 24" fill="none" xmlns="http://www.w3.org/2000/svg">
<path d="M0 20.4V18H3V9.6C3 7.94 3.625 6.465 4.875 5.175C6.125 3.885 7.75 3.04 9.75 2.64V1.8C9.75 1.3 9.96875 0.875 10.4062 0.525C10.8438 0.175 11.375 0 12 0C12.625 0 13.1563 0.175 13.5938 0.525C14.0313 0.875 14.25 1.3 14.25 1.8V2.64C16.25 3.04 17.875 3.885 19.125 5.175C20.375 6.465 21 7.94 21 9.6V18H24V20.4H0ZM12 24C11.175 24 10.4688 23.765 9.88125 23.295C9.29375 22.825 9 22.26 9 21.6H15C15 22.26 14.7063 22.825 14.1188 23.295C13.5313 23.765 12.825 24 12 24ZM6 18H18V9.6C18 8.28 17.4125 7.15 16.2375 6.21C15.0625 5.27 13.65 4.8 12 4.8C10.35 4.8 8.9375 5.27 7.7625 6.21C6.5875 7.15 6 8.28 6 9.6V18Z" fill="#545454"/>
</svg>
