<svg width="16" height="16" viewBox="0 0 16 16" fill="none" xmlns="http://www.w3.org/2000/svg">
<g id="Group">
<path id="Vector" d="M1.56679 11.5655C1.44503 11.5655 1.326 11.5294 1.22477 11.4617C1.12353 11.394 1.04463 11.2979 0.998036 11.1854C0.951442 11.0729 0.939248 10.9491 0.962996 10.8297C0.986745 10.7103 1.04537 10.6005 1.13146 10.5144L10.7538 0.892083C10.8106 0.833273 10.8786 0.786363 10.9537 0.754092C11.0288 0.721821 11.1096 0.704835 11.1914 0.704125C11.2731 0.703414 11.3542 0.718994 11.4299 0.749954C11.5055 0.780915 11.5743 0.826636 11.6321 0.884451C11.6899 0.942265 11.7356 1.01102 11.7666 1.08669C11.7976 1.16236 11.8131 1.24344 11.8124 1.3252C11.8117 1.40696 11.7947 1.48776 11.7625 1.56289C11.7302 1.63801 11.6833 1.70595 11.6245 1.76276L2.00213 11.3851C1.88206 11.5052 1.72442 11.5655 1.56679 11.5655Z" fill="#FFFFFF"/>
<path id="Vector_2" d="M0.616244 16C0.524364 16 0.433632 15.9795 0.3507 15.94C0.267768 15.9004 0.194738 15.8428 0.136964 15.7714C0.0791896 15.6999 0.038136 15.6165 0.0168123 15.5271C-0.00451131 15.4377 -0.00556438 15.3447 0.0137304 15.2549L0.965067 10.8206C0.981813 10.7413 1.01404 10.6661 1.0599 10.5993C1.10576 10.5325 1.16435 10.4754 1.23232 10.4313C1.30029 10.3872 1.37629 10.3569 1.45598 10.3423C1.53566 10.3276 1.61746 10.3288 1.69668 10.3458C1.7759 10.3628 1.85099 10.3952 1.91764 10.4413C1.98429 10.4874 2.0412 10.5461 2.08509 10.6142C2.12899 10.6823 2.15901 10.7584 2.17343 10.8382C2.18786 10.9179 2.18641 10.9997 2.16917 11.0789L1.21783 15.5132C1.18833 15.6509 1.11253 15.7743 1.00306 15.8629C0.893584 15.9515 0.757061 15.9998 0.616244 16ZM5.04996 15.0486C4.9282 15.0486 4.80917 15.0125 4.70794 14.9448C4.6067 14.8771 4.5278 14.781 4.48121 14.6685C4.43461 14.556 4.42242 14.4322 4.44617 14.3128C4.46992 14.1933 4.52854 14.0836 4.61463 13.9975L14.237 4.37548C14.2938 4.31667 14.3617 4.26976 14.4368 4.23749C14.512 4.20522 14.5928 4.18823 14.6745 4.18752C14.7563 4.18681 14.8374 4.20239 14.913 4.23335C14.9887 4.26431 15.0575 4.31003 15.1153 4.36785C15.1731 4.42566 15.2188 4.49441 15.2498 4.57009C15.2807 4.64576 15.2963 4.72684 15.2956 4.8086C15.2949 4.89036 15.2779 4.97116 15.2456 5.04628C15.2134 5.12141 15.1665 5.18935 15.1077 5.24615L5.48561 14.8682C5.42847 14.9255 5.36056 14.9709 5.2858 15.0019C5.21103 15.0329 5.13089 15.0487 5.04996 15.0486Z" fill="#FFFFFF"/>
<path id="Vector_3" d="M0.615396 16C0.463667 15.9994 0.317514 15.9427 0.204944 15.841C0.0923746 15.7393 0.0213084 15.5996 0.005365 15.4487C-0.0105784 15.2978 0.0297226 15.1463 0.118544 15.0233C0.207366 14.9003 0.338461 14.8144 0.486704 14.782L4.92104 13.8307C5.08049 13.797 5.2468 13.8279 5.3835 13.9166C5.52021 14.0054 5.61617 14.1447 5.65036 14.304C5.68454 14.4634 5.65416 14.6298 5.56587 14.7667C5.47758 14.9037 5.33859 15.0001 5.17935 15.0348L0.745012 15.9861C0.702434 15.9954 0.658975 16.0001 0.615396 16ZM12.931 7.16797C12.8502 7.16812 12.7701 7.15225 12.6953 7.12129C12.6206 7.09032 12.5528 7.04487 12.4957 6.98755L9.01271 3.50455C8.9539 3.44775 8.90699 3.3798 8.87472 3.30468C8.84245 3.22956 8.82546 3.14876 8.82475 3.067C8.82404 2.98524 8.83962 2.90416 8.87058 2.82848C8.90154 2.75281 8.94726 2.68406 9.00508 2.62625C9.06289 2.56843 9.13164 2.52271 9.20732 2.49175C9.28299 2.46079 9.36407 2.44521 9.44583 2.44592C9.52759 2.44663 9.60839 2.46362 9.68351 2.49589C9.75864 2.52816 9.82658 2.57507 9.88338 2.63388L13.3664 6.11688C13.4525 6.20299 13.5111 6.3127 13.5348 6.43212C13.5586 6.55155 13.5464 6.67534 13.4998 6.78783C13.4532 6.90033 13.3743 6.99649 13.2731 7.06415C13.1718 7.13181 13.0528 7.16794 12.931 7.16797ZM14.6727 5.42662C14.5508 5.42672 14.4317 5.39065 14.3304 5.323C14.229 5.25535 14.15 5.15915 14.1034 5.04657C14.0567 4.934 14.0445 4.81012 14.0683 4.69061C14.0921 4.5711 14.1508 4.46134 14.2371 4.37522C14.5797 4.03256 14.7684 3.56859 14.7684 3.06921C14.7684 2.56984 14.5797 2.10587 14.2371 1.76321C13.8941 1.42023 13.4301 1.2315 12.9307 1.2315C12.4314 1.2315 11.9674 1.42023 11.6247 1.76321C11.5675 1.82039 11.4996 1.86576 11.4249 1.89671C11.3502 1.92766 11.2701 1.94359 11.1892 1.94359C11.1084 1.94359 11.0283 1.92766 10.9536 1.89671C10.8788 1.86576 10.8109 1.82039 10.7537 1.76321C10.6966 1.70602 10.6512 1.63812 10.6202 1.5634C10.5893 1.48868 10.5734 1.40859 10.5734 1.32771C10.5734 1.24684 10.5893 1.16675 10.6202 1.09203C10.6512 1.01731 10.6966 0.949414 10.7537 0.892224C11.3289 0.316804 12.1019 0 12.9307 0C13.7592 0 14.5326 0.316804 15.1077 0.892224C15.6831 1.46734 16 2.24041 16 3.06921C16 3.89802 15.6831 4.67109 15.1077 5.2462C15.0507 5.30349 14.9829 5.34892 14.9082 5.37988C14.8336 5.41085 14.7535 5.42673 14.6727 5.42662Z" fill="#FFFFFF"/>
</g>
</svg>
