<svg width="16" height="16" viewBox="0 0 16 16" fill="none" xmlns="http://www.w3.org/2000/svg">
<g id="Group">
<path id="Vector" d="M9.00029 7.09938C9.0002 7.36845 8.89473 7.62647 8.70708 7.81667C8.51942 8.00687 8.26496 8.11367 7.99967 8.11358C7.73437 8.11349 7.47998 8.00651 7.29245 7.81619C7.10492 7.62586 6.99962 7.36778 6.99971 7.0987C6.9998 6.82963 7.10527 6.57162 7.29292 6.38142C7.48058 6.19122 7.73504 6.08442 8.00033 6.08451C8.26563 6.0846 8.52002 6.19157 8.70755 6.3819C8.89508 6.57222 9.00038 6.83031 9.00029 7.09938ZM11.3335 6.08518C11.0682 6.08527 10.8138 6.19225 10.6263 6.38257C10.4388 6.5729 10.3335 6.83099 10.3336 7.10006C10.3337 7.36913 10.4391 7.62714 10.6268 7.81734C10.8144 8.00754 11.0689 8.11434 11.3342 8.11425C11.4656 8.11421 11.5956 8.08792 11.717 8.0369C11.8383 7.98587 11.9486 7.9111 12.0414 7.81686C12.1343 7.72262 12.2079 7.61076 12.2581 7.48765C12.3084 7.36455 12.3342 7.23261 12.3342 7.09938C12.3341 6.96615 12.3082 6.83423 12.2579 6.71116C12.2076 6.58809 12.1339 6.47627 12.0409 6.38209C11.948 6.28792 11.8377 6.21322 11.7163 6.16228C11.595 6.11134 11.4649 6.08514 11.3335 6.08518ZM4.66714 6.08518C4.40184 6.08527 4.14745 6.19225 3.95992 6.38257C3.77239 6.5729 3.66709 6.83099 3.66718 7.10006C3.66727 7.36913 3.77274 7.62714 3.96039 7.81734C4.14805 8.00754 4.40251 8.11434 4.66781 8.11425C4.9331 8.11416 5.18749 8.00719 5.37502 7.81686C5.56255 7.62654 5.66785 7.36845 5.66776 7.09938C5.66768 6.83031 5.5622 6.57229 5.37455 6.38209C5.1869 6.1919 4.93243 6.08509 4.66714 6.08518ZM16 2.70453V10.8181C16 12.3096 14.8041 13.5226 13.3334 13.5226H11.4322L8.86696 15.6727C8.62926 15.8854 8.32266 16.0019 8.00567 16C7.67718 16.0004 7.36 15.8784 7.11437 15.6572L4.61514 13.5226H2.66656C1.19595 13.5226 0 12.3096 0 10.8181V2.70453C0.00105837 1.98745 0.28243 1.30007 0.782421 0.793084C1.28241 0.2861 1.96022 0.000894196 2.66722 0L13.3334 0C14.8041 0 16 1.21298 16 2.70453ZM14.6667 2.70453C14.6667 1.95875 14.0687 1.35226 13.3334 1.35226H2.66722C1.93192 1.35226 1.33394 1.95875 1.33394 2.70453V10.8181C1.33394 11.5639 1.93192 12.1704 2.66722 12.1704H4.85913C5.01579 12.1704 5.16845 12.2265 5.28911 12.3293L7.98767 14.6349L10.7682 12.3252C10.8877 12.225 11.0379 12.1703 11.1929 12.1704H13.3341C14.0694 12.1704 14.6674 11.5639 14.6674 10.8181L14.6667 2.70453Z" fill="#FFFFFF"/>
</g>
</svg>
