<svg width="16" height="16" viewBox="0 0 16 16" fill="none" xmlns="http://www.w3.org/2000/svg">
<g id="Group">
<path id="Vector" d="M15.1761 6.82124L11.8761 3.52124L10.9341 4.46657L13.8008 7.33324H4.41211V8.66657H13.8008L10.9341 11.5332L11.8768 12.4759L15.1768 9.17591C15.3316 9.02114 15.4544 8.83739 15.5382 8.63515C15.622 8.43291 15.6651 8.21615 15.6651 7.99724C15.6651 7.77833 15.622 7.56157 15.5382 7.35933C15.4544 7.1571 15.3316 6.97334 15.1768 6.81857L15.1761 6.82124Z" fill="#545454"/>
<path id="Vector_2" d="M6.984 14C6.984 14.1768 6.91376 14.3464 6.78874 14.4714C6.66371 14.5964 6.49414 14.6667 6.31733 14.6667H2C1.82319 14.6667 1.65362 14.5964 1.5286 14.4714C1.40357 14.3464 1.33333 14.1768 1.33333 14V2C1.33333 1.82319 1.40357 1.65362 1.5286 1.5286C1.65362 1.40357 1.82319 1.33333 2 1.33333H6.31733C6.49414 1.33333 6.66371 1.40357 6.78874 1.5286C6.91376 1.65362 6.984 1.82319 6.984 2V5.55533H8.31733V2C8.31733 1.46957 8.10662 0.960859 7.73155 0.585786C7.35647 0.210714 6.84777 0 6.31733 0L2 0C1.46957 0 0.960859 0.210714 0.585786 0.585786C0.210714 0.960859 0 1.46957 0 2L0 14C0 14.5304 0.210714 15.0391 0.585786 15.4142C0.960859 15.7893 1.46957 16 2 16H6.31733C6.84777 16 7.35647 15.7893 7.73155 15.4142C8.10662 15.0391 8.31733 14.5304 8.31733 14V10.4447H6.984V14Z" fill="#545454"/>
</g>
</svg>
