<svg width="18" height="13" viewBox="0 0 18 13" fill="none" xmlns="http://www.w3.org/2000/svg">
<g id="Container">
<path id="Vector" d="M17.6896 12.5H0.310359C0.228049 12.5 0.149114 12.4667 0.0909123 12.4075C0.0327107 12.3483 9.32209e-06 12.268 0 12.1842L0 0.815803C9.32209e-06 0.73205 0.0327107 0.65173 0.0909123 0.592507C0.149114 0.533285 0.228049 0.500009 0.310359 0.5H17.6896C17.772 0.500009 17.8509 0.533285 17.9091 0.592507C17.9673 0.65173 18 0.73205 18 0.815803V12.1842C18 12.268 17.9673 12.3483 17.9091 12.4075C17.8509 12.4667 17.7719 12.5 17.6896 12.5Z" fill="#F5F5F5"/>
<path id="Vector_2" d="M18 1.42312H0V0.815803C9.32209e-06 0.73205 0.0327107 0.65173 0.0909123 0.592507C0.149114 0.533285 0.228049 0.500009 0.310359 0.5H17.6896C17.772 0.500009 17.8509 0.533285 17.9091 0.592507C17.9673 0.65173 18 0.73205 18 0.815803L18 1.42312ZM0 4.1923H18V5.11539H0V4.1923ZM0 2.34606H18V3.26915H0V2.34606ZM18 6.96156H0.310359C0.228049 6.96155 0.149114 6.92828 0.0909123 6.86905C0.0327107 6.80983 9.32209e-06 6.72951 0 6.64576L0 6.03844H18V6.96156ZM0 9.73103H18V10.6541H0V9.73103ZM17.6896 12.5H0.310359C0.228049 12.5 0.149114 12.4667 0.0909123 12.4075C0.0327107 12.3483 9.32209e-06 12.268 0 12.1842L0 11.5769H18V12.1842C18 12.268 17.9673 12.3483 17.909 12.4075C17.8508 12.4667 17.7719 12.5 17.6896 12.5ZM0 7.88479H18V8.80787H0V7.88479Z" fill="#FF4B55"/>
<path id="Vector_3" d="M8.06896 0.5H0.310359C0.228053 0.5 0.149117 0.533267 0.0909146 0.592484C0.0327119 0.651701 9.32333e-06 0.732018 0 0.815768L0 6.6457C9.32211e-06 6.72945 0.0327108 6.80977 0.0909125 6.86899C0.149114 6.92822 0.22805 6.96149 0.310359 6.9615H8.06899C8.1513 6.96149 8.23024 6.92822 8.28844 6.86899C8.34664 6.80977 8.37934 6.72945 8.37935 6.6457V0.815768C8.37932 0.732018 8.34661 0.651707 8.2884 0.592493C8.2302 0.533279 8.15126 0.500009 8.06896 0.5Z" fill="#41479B"/>
<path id="Vector_4" d="M0.872372 1.22544L0.941067 1.43507L1.15823 1.43675C1.18635 1.437 1.19799 1.47349 1.17538 1.49048L1.00069 1.62177L1.06622 1.83244C1.07473 1.8597 1.04418 1.88231 1.02129 1.86564L0.844634 1.73717L0.667974 1.86567C0.645087 1.88231 0.614606 1.85973 0.623044 1.83247L0.688575 1.62181L0.513884 1.49052C0.491278 1.47349 0.502915 1.43704 0.53104 1.43679L0.7482 1.43511L0.816895 1.22548C0.825755 1.19829 0.863442 1.19829 0.872372 1.22544ZM0.872372 2.32203L0.941067 2.53166L1.15823 2.53334C1.18635 2.53359 1.19799 2.57008 1.17538 2.58707L1.00069 2.71836L1.06622 2.92902C1.07473 2.95628 1.04418 2.97889 1.02129 2.96222L0.844634 2.83376L0.667974 2.96226C0.645087 2.97889 0.614606 2.95632 0.623044 2.92906L0.688575 2.71839L0.513884 2.58711C0.491278 2.57008 0.502915 2.53363 0.53104 2.53338L0.7482 2.53169L0.816895 2.32206C0.825755 2.29491 0.863442 2.29491 0.872372 2.32203ZM0.872372 3.41861L0.941067 3.62824L1.15823 3.62993C1.18635 3.63018 1.19799 3.66666 1.17538 3.68366L1.00069 3.81494L1.06622 4.02561C1.07473 4.05287 1.04418 4.07548 1.02129 4.05881L0.844634 3.93035L0.667974 4.05884C0.645087 4.07548 0.614606 4.05291 0.623044 4.02565L0.688575 3.81498L0.513884 3.68369C0.491278 3.66666 0.502915 3.63021 0.53104 3.62996L0.7482 3.62828L0.816895 3.41865C0.825755 3.3915 0.863442 3.3915 0.872372 3.41861ZM0.872372 4.51524L0.941067 4.72487L1.15823 4.72655C1.18635 4.7268 1.19799 4.76329 1.17538 4.78028L1.00069 4.91157L1.06622 5.12223C1.07473 5.14949 1.04418 5.1721 1.02129 5.15543L0.844634 5.02697L0.667974 5.15547C0.645087 5.1721 0.614606 5.14953 0.623044 5.12227L0.688575 4.9116L0.513884 4.78031C0.491278 4.76329 0.502915 4.72683 0.53104 4.72658L0.7482 4.7249L0.816895 4.51527C0.825755 4.48808 0.863442 4.48808 0.872372 4.51524ZM0.872372 5.61182L0.941067 5.82145L1.15823 5.82313C1.18635 5.82338 1.19799 5.85987 1.17538 5.87686L1.00069 6.00815L1.06622 6.21882C1.07473 6.24608 1.04418 6.26869 1.02129 6.25202L0.844634 6.12356L0.667974 6.25205C0.645087 6.26869 0.614606 6.24611 0.623044 6.21885L0.688575 6.00819L0.513884 5.8769C0.491278 5.85987 0.502915 5.82342 0.53104 5.82317L0.7482 5.82149L0.816895 5.61186C0.825755 5.58464 0.863442 5.58463 0.872372 5.61182ZM1.70884 1.76307L1.77754 1.9727L1.9947 1.97439C2.02283 1.97464 2.03446 2.01112 2.01186 2.02812L1.83716 2.1594L1.9027 2.37007C1.9112 2.39733 1.88065 2.41994 1.85777 2.40327L1.68111 2.27477L1.50445 2.40327C1.48156 2.4199 1.45108 2.39733 1.45952 2.37007L1.52505 2.1594L1.35036 2.02812C1.32775 2.01109 1.33939 1.97464 1.36751 1.97439L1.58467 1.9727L1.65337 1.76307C1.66219 1.73596 1.69995 1.73596 1.70884 1.76307ZM1.70884 2.8597L1.77754 3.06933L1.9947 3.07101C2.02283 3.07126 2.03446 3.10775 2.01186 3.12474L1.83716 3.25603L1.9027 3.46669C1.9112 3.49395 1.88065 3.51656 1.85777 3.49989L1.68111 3.37139L1.50445 3.49989C1.48156 3.51652 1.45108 3.49399 1.45952 3.46669L1.52505 3.25603L1.35036 3.12474C1.32775 3.10771 1.33939 3.07126 1.36751 3.07101L1.58467 3.06933L1.65337 2.8597C1.66219 2.83254 1.69995 2.83254 1.70884 2.8597ZM1.70884 3.95628L1.77754 4.16591L1.9947 4.16759C2.02283 4.16784 2.03446 4.20433 2.01186 4.22133L1.83716 4.35261L1.9027 4.56328C1.9112 4.59054 1.88065 4.61315 1.85777 4.59648L1.68111 4.46798L1.50445 4.59648C1.48156 4.61311 1.45108 4.59054 1.45952 4.56328L1.52505 4.35261L1.35036 4.22133C1.32775 4.2043 1.33939 4.16784 1.36751 4.16759L1.58467 4.16591L1.65337 3.95628C1.66219 3.92913 1.69995 3.92913 1.70884 3.95628ZM1.70884 5.05287L1.77754 5.2625L1.9947 5.26418C2.02283 5.26443 2.03446 5.30092 2.01186 5.31791L1.83716 5.4492L1.9027 5.65987C1.9112 5.68712 1.88065 5.70973 1.85777 5.69306L1.68111 5.56457L1.50445 5.69306C1.48156 5.7097 1.45108 5.68712 1.45952 5.65987L1.52505 5.4492L1.35036 5.31791C1.32775 5.30088 1.33939 5.26443 1.36751 5.26418L1.58467 5.2625L1.65337 5.05287C1.66219 5.02575 1.69995 5.02575 1.70884 5.05287ZM2.54532 1.22544L2.61401 1.43507L2.83117 1.43675C2.8593 1.437 2.87093 1.47349 2.84833 1.49048L2.67364 1.62177L2.73917 1.83244C2.74768 1.8597 2.71713 1.88231 2.69424 1.86564L2.51758 1.73714L2.34092 1.86564C2.31803 1.88227 2.28755 1.8597 2.29599 1.83244L2.36152 1.62177L2.18683 1.49048C2.16422 1.47346 2.17586 1.437 2.20399 1.43675L2.42115 1.43507L2.48984 1.22544C2.4987 1.19829 2.53642 1.19829 2.54532 1.22544ZM2.54532 2.32203L2.61401 2.53166L2.83117 2.53334C2.8593 2.53359 2.87093 2.57008 2.84833 2.58707L2.67364 2.71836L2.73917 2.92902C2.74768 2.95628 2.71713 2.97889 2.69424 2.96222L2.51758 2.83373L2.34092 2.96222C2.31803 2.97886 2.28755 2.95628 2.29599 2.92902L2.36152 2.71836L2.18683 2.58707C2.16422 2.57004 2.17586 2.53359 2.20399 2.53334L2.42115 2.53166L2.48984 2.32203C2.4987 2.29491 2.53642 2.29491 2.54532 2.32203ZM2.54532 3.41861L2.61401 3.62824L2.83117 3.62993C2.8593 3.63018 2.87093 3.66666 2.84833 3.68366L2.67364 3.81494L2.73917 4.02561C2.74768 4.05287 2.71713 4.07548 2.69424 4.05881L2.51758 3.93031L2.34092 4.05881C2.31803 4.07544 2.28755 4.05287 2.29599 4.02561L2.36152 3.81494L2.18683 3.68366C2.16422 3.66663 2.17586 3.63018 2.20399 3.62993L2.42115 3.62824L2.48984 3.41861C2.4987 3.3915 2.53642 3.3915 2.54532 3.41861ZM2.54532 4.51524L2.61401 4.72487L2.83117 4.72655C2.8593 4.7268 2.87093 4.76329 2.84833 4.78028L2.67364 4.91157L2.73917 5.12223C2.74768 5.14949 2.71713 5.1721 2.69424 5.15543L2.51758 5.02693L2.34092 5.15543C2.31803 5.17206 2.28755 5.14949 2.29599 5.12223L2.36152 4.91157L2.18683 4.78028C2.16422 4.76325 2.17586 4.7268 2.20399 4.72655L2.42115 4.72487L2.48984 4.51524C2.4987 4.48808 2.53642 4.48808 2.54532 4.51524ZM2.54532 5.61182L2.61401 5.82145L2.83117 5.82313C2.8593 5.82338 2.87093 5.85987 2.84833 5.87686L2.67364 6.00815L2.73917 6.21882C2.74768 6.24608 2.71713 6.26869 2.69424 6.25202L2.51758 6.12352L2.34092 6.25202C2.31803 6.26865 2.28755 6.24608 2.29599 6.21882L2.36152 6.00815L2.18683 5.87686C2.16422 5.85984 2.17586 5.82338 2.20399 5.82313L2.42115 5.82145L2.48984 5.61182C2.4987 5.58463 2.53642 5.58463 2.54532 5.61182ZM3.38183 1.76307L3.45052 1.9727L3.66768 1.97439C3.69581 1.97464 3.70744 2.01112 3.68484 2.02812L3.51015 2.1594L3.57568 2.37007C3.58418 2.39733 3.55363 2.41994 3.53075 2.40327L3.35409 2.27477L3.17743 2.40327C3.15454 2.4199 3.12406 2.39733 3.1325 2.37007L3.19803 2.1594L3.02334 2.02812C3.00073 2.01109 3.01237 1.97464 3.04049 1.97439L3.25765 1.9727L3.32635 1.76307C3.33517 1.73596 3.37293 1.73596 3.38183 1.76307ZM3.38183 2.8597L3.45052 3.06933L3.66768 3.07101C3.69581 3.07126 3.70744 3.10775 3.68484 3.12474L3.51015 3.25603L3.57568 3.46669C3.58418 3.49395 3.55363 3.51656 3.53075 3.49989L3.35409 3.37139L3.17743 3.49989C3.15454 3.51652 3.12406 3.49399 3.1325 3.46669L3.19803 3.25603L3.02334 3.12474C3.00073 3.10771 3.01237 3.07126 3.04049 3.07101L3.25765 3.06933L3.32635 2.8597C3.33517 2.83254 3.37293 2.83254 3.38183 2.8597ZM3.38183 3.95628L3.45052 4.16591L3.66768 4.16759C3.69581 4.16784 3.70744 4.20433 3.68484 4.22133L3.51015 4.35261L3.57568 4.56328C3.58418 4.59054 3.55363 4.61315 3.53075 4.59648L3.35409 4.46798L3.17743 4.59648C3.15454 4.61311 3.12406 4.59054 3.1325 4.56328L3.19803 4.35261L3.02334 4.22133C3.00073 4.2043 3.01237 4.16784 3.04049 4.16759L3.25765 4.16591L3.32635 3.95628C3.33517 3.92913 3.37293 3.92913 3.38183 3.95628ZM3.38183 5.05287L3.45052 5.2625L3.66768 5.26418C3.69581 5.26443 3.70744 5.30092 3.68484 5.31791L3.51015 5.4492L3.57568 5.65987C3.58418 5.68712 3.55363 5.70973 3.53075 5.69306L3.35409 5.56457L3.17743 5.69306C3.15454 5.7097 3.12406 5.68712 3.1325 5.65987L3.19803 5.4492L3.02334 5.31791C3.00073 5.30088 3.01237 5.26443 3.04049 5.26418L3.25765 5.2625L3.32635 5.05287C3.33517 5.02575 3.37293 5.02575 3.38183 5.05287ZM4.2183 1.22544L4.28699 1.43507L4.50415 1.43675C4.53228 1.437 4.54391 1.47349 4.52131 1.49048L4.34662 1.62177L4.41215 1.83244C4.42066 1.8597 4.39011 1.88231 4.36722 1.86564L4.19052 1.73714L4.01386 1.86564C3.99098 1.88227 3.9605 1.8597 3.96893 1.83244L4.03447 1.62177L3.85977 1.49048C3.83717 1.47346 3.84881 1.437 3.87693 1.43675L4.09409 1.43507L4.16279 1.22544C4.17168 1.19829 4.2094 1.19829 4.2183 1.22544ZM4.2183 2.32203L4.28699 2.53166L4.50415 2.53334C4.53228 2.53359 4.54391 2.57008 4.52131 2.58707L4.34662 2.71836L4.41215 2.92902C4.42066 2.95628 4.39011 2.97889 4.36722 2.96222L4.19052 2.83373L4.01386 2.96222C3.99098 2.97886 3.9605 2.95628 3.96893 2.92902L4.03447 2.71836L3.85977 2.58707C3.83717 2.57004 3.84881 2.53359 3.87693 2.53334L4.09409 2.53166L4.16279 2.32203C4.17168 2.29491 4.2094 2.29491 4.2183 2.32203ZM4.2183 3.41861L4.28699 3.62824L4.50415 3.62993C4.53228 3.63018 4.54391 3.66666 4.52131 3.68366L4.34662 3.81494L4.41215 4.02561C4.42066 4.05287 4.39011 4.07548 4.36722 4.05881L4.19052 3.93031L4.01386 4.05881C3.99098 4.07544 3.9605 4.05287 3.96893 4.02561L4.03447 3.81494L3.85977 3.68366C3.83717 3.66663 3.84881 3.63018 3.87693 3.62993L4.09409 3.62824L4.16279 3.41861C4.17168 3.3915 4.2094 3.3915 4.2183 3.41861ZM4.2183 4.51524L4.28699 4.72487L4.50415 4.72655C4.53228 4.7268 4.54391 4.76329 4.52131 4.78028L4.34662 4.91157L4.41215 5.12223C4.42066 5.14949 4.39011 5.1721 4.36722 5.15543L4.19052 5.02693L4.01386 5.15543C3.99098 5.17206 3.9605 5.14949 3.96893 5.12223L4.03447 4.91157L3.85977 4.78028C3.83717 4.76325 3.84881 4.7268 3.87693 4.72655L4.09409 4.72487L4.16279 4.51524C4.17168 4.48808 4.2094 4.48808 4.2183 4.51524ZM4.2183 5.61182L4.28699 5.82145L4.50415 5.82313C4.53228 5.82338 4.54391 5.85987 4.52131 5.87686L4.34662 6.00815L4.41215 6.21882C4.42066 6.24608 4.39011 6.26869 4.36722 6.25202L4.19052 6.12352L4.01386 6.25202C3.99098 6.26865 3.9605 6.24608 3.96893 6.21882L4.03447 6.00815L3.85977 5.87686C3.83717 5.85984 3.84881 5.82338 3.87693 5.82313L4.09409 5.82145L4.16279 5.61182C4.17168 5.58463 4.2094 5.58463 4.2183 5.61182ZM5.05477 1.76307L5.12347 1.9727L5.34063 1.97439C5.36875 1.97464 5.38039 2.01112 5.35778 2.02812L5.18309 2.1594L5.24862 2.37007C5.25713 2.39733 5.22658 2.41994 5.20369 2.40327L5.02703 2.27477L4.85037 2.40327C4.82749 2.4199 4.797 2.39733 4.80544 2.37007L4.87097 2.1594L4.69628 2.02812C4.67368 2.01109 4.68531 1.97464 4.71344 1.97439L4.9306 1.9727L4.99929 1.76307C5.00819 1.73596 5.04588 1.73596 5.05477 1.76307ZM5.05477 2.8597L5.12347 3.06933L5.34063 3.07101C5.36875 3.07126 5.38039 3.10775 5.35778 3.12474L5.18309 3.25603L5.24862 3.46669C5.25713 3.49395 5.22658 3.51656 5.20369 3.49989L5.02703 3.37139L4.85037 3.49989C4.82749 3.51652 4.797 3.49399 4.80544 3.46669L4.87097 3.25603L4.69628 3.12474C4.67368 3.10771 4.68531 3.07126 4.71344 3.07101L4.9306 3.06933L4.99929 2.8597C5.00819 2.83254 5.04588 2.83254 5.05477 2.8597ZM5.05477 3.95628L5.12347 4.16591L5.34063 4.16759C5.36875 4.16784 5.38039 4.20433 5.35778 4.22133L5.18309 4.35261L5.24862 4.56328C5.25713 4.59054 5.22658 4.61315 5.20369 4.59648L5.02703 4.46798L4.85037 4.59648C4.82749 4.61311 4.797 4.59054 4.80544 4.56328L4.87097 4.35261L4.69628 4.22133C4.67368 4.2043 4.68531 4.16784 4.71344 4.16759L4.9306 4.16591L4.99929 3.95628C5.00819 3.92913 5.04588 3.92913 5.05477 3.95628ZM5.05477 5.05287L5.12347 5.2625L5.34063 5.26418C5.36875 5.26443 5.38039 5.30092 5.35778 5.31791L5.18309 5.4492L5.24862 5.65987C5.25713 5.68712 5.22658 5.70973 5.20369 5.69306L5.02703 5.56457L4.85037 5.69306C4.82749 5.7097 4.797 5.68712 4.80544 5.65987L4.87097 5.4492L4.69628 5.31791C4.67368 5.30088 4.68531 5.26443 4.71344 5.26418L4.9306 5.2625L4.99929 5.05287C5.00819 5.02575 5.04588 5.02575 5.05477 5.05287ZM5.89128 1.22544L5.95997 1.43507L6.17713 1.43675C6.20526 1.437 6.2169 1.47349 6.19429 1.49048L6.0196 1.62177L6.08513 1.83244C6.09364 1.8597 6.06309 1.88231 6.0402 1.86564L5.86354 1.73714L5.68688 1.86564C5.66399 1.88227 5.63351 1.8597 5.64195 1.83244L5.70748 1.62177L5.53279 1.49048C5.51018 1.47346 5.52182 1.437 5.54995 1.43675L5.76711 1.43507L5.8358 1.22544C5.84463 1.19829 5.88238 1.19829 5.89128 1.22544ZM5.89128 2.32203L5.95997 2.53166L6.17713 2.53334C6.20526 2.53359 6.2169 2.57008 6.19429 2.58707L6.0196 2.71836L6.08513 2.92902C6.09364 2.95628 6.06309 2.97889 6.0402 2.96222L5.86354 2.83373L5.68688 2.96222C5.66399 2.97886 5.63351 2.95628 5.64195 2.92902L5.70748 2.71836L5.53279 2.58707C5.51018 2.57004 5.52182 2.53359 5.54995 2.53334L5.76711 2.53166L5.8358 2.32203C5.84463 2.29491 5.88238 2.29491 5.89128 2.32203ZM5.89128 3.41861L5.95997 3.62824L6.17713 3.62993C6.20526 3.63018 6.2169 3.66666 6.19429 3.68366L6.0196 3.81494L6.08513 4.02561C6.09364 4.05287 6.06309 4.07548 6.0402 4.05881L5.86354 3.93031L5.68688 4.05881C5.66399 4.07544 5.63351 4.05287 5.64195 4.02561L5.70748 3.81494L5.53279 3.68366C5.51018 3.66663 5.52182 3.63018 5.54995 3.62993L5.76711 3.62824L5.8358 3.41861C5.84463 3.3915 5.88238 3.3915 5.89128 3.41861ZM5.89128 4.51524L5.95997 4.72487L6.17713 4.72655C6.20526 4.7268 6.2169 4.76329 6.19429 4.78028L6.0196 4.91157L6.08513 5.12223C6.09364 5.14949 6.06309 5.1721 6.0402 5.15543L5.86354 5.02693L5.68688 5.15543C5.66399 5.17206 5.63351 5.14949 5.64195 5.12223L5.70748 4.91157L5.53279 4.78028C5.51018 4.76325 5.52182 4.7268 5.54995 4.72655L5.76711 4.72487L5.8358 4.51524C5.84463 4.48808 5.88238 4.48808 5.89128 4.51524ZM5.89128 5.61182L5.95997 5.82145L6.17713 5.82313C6.20526 5.82338 6.2169 5.85987 6.19429 5.87686L6.0196 6.00815L6.08513 6.21882C6.09364 6.24608 6.06309 6.26869 6.0402 6.25202L5.86354 6.12352L5.68688 6.25202C5.66399 6.26865 5.63351 6.24608 5.64195 6.21882L5.70748 6.00815L5.53279 5.87686C5.51018 5.85984 5.52182 5.82338 5.54995 5.82313L5.76711 5.82145L5.8358 5.61182C5.84463 5.58463 5.88238 5.58463 5.89128 5.61182ZM6.72775 1.76307L6.79645 1.9727L7.01361 1.97439C7.04173 1.97464 7.05337 2.01112 7.03076 2.02812L6.85607 2.1594L6.9216 2.37007C6.93011 2.39733 6.89956 2.41994 6.87667 2.40327L6.70001 2.27477L6.52335 2.40327C6.50047 2.4199 6.46999 2.39733 6.47842 2.37007L6.54395 2.1594L6.36926 2.02812C6.34666 2.01109 6.35829 1.97464 6.38642 1.97439L6.60358 1.9727L6.67227 1.76307C6.68113 1.73596 6.71889 1.73596 6.72775 1.76307ZM6.72775 2.8597L6.79645 3.06933L7.01361 3.07101C7.04173 3.07126 7.05337 3.10775 7.03076 3.12474L6.85607 3.25603L6.9216 3.46669C6.93011 3.49395 6.89956 3.51656 6.87667 3.49989L6.70001 3.37139L6.52335 3.49989C6.50047 3.51652 6.46999 3.49399 6.47842 3.46669L6.54395 3.25603L6.36926 3.12474C6.34666 3.10771 6.35829 3.07126 6.38642 3.07101L6.60358 3.06933L6.67227 2.8597C6.68113 2.83254 6.71889 2.83254 6.72775 2.8597ZM6.72775 3.95628L6.79645 4.16591L7.01361 4.16759C7.04173 4.16784 7.05337 4.20433 7.03076 4.22133L6.85607 4.35261L6.9216 4.56328C6.93011 4.59054 6.89956 4.61315 6.87667 4.59648L6.70001 4.46798L6.52335 4.59648C6.50047 4.61311 6.46999 4.59054 6.47842 4.56328L6.54395 4.35261L6.36926 4.22133C6.34666 4.2043 6.35829 4.16784 6.38642 4.16759L6.60358 4.16591L6.67227 3.95628C6.68113 3.92913 6.71889 3.92913 6.72775 3.95628ZM6.72775 5.05287L6.79645 5.2625L7.01361 5.26418C7.04173 5.26443 7.05337 5.30092 7.03076 5.31791L6.85607 5.4492L6.9216 5.65987C6.93011 5.68712 6.89956 5.70973 6.87667 5.69306L6.70001 5.56457L6.52335 5.69306C6.50047 5.7097 6.46999 5.68712 6.47842 5.65987L6.54395 5.4492L6.36926 5.31791C6.34666 5.30088 6.35829 5.26443 6.38642 5.26418L6.60358 5.2625L6.67227 5.05287C6.68113 5.02575 6.71889 5.02575 6.72775 5.05287ZM7.56426 1.22544L7.63295 1.43507L7.85011 1.43675C7.87824 1.437 7.88988 1.47349 7.86727 1.49048L7.69258 1.62177L7.75811 1.83244C7.76662 1.8597 7.73607 1.88231 7.71318 1.86564L7.53652 1.73714L7.35986 1.86564C7.33697 1.88227 7.30649 1.8597 7.31493 1.83244L7.38046 1.62177L7.20577 1.49048C7.18317 1.47346 7.1948 1.437 7.22293 1.43675L7.44009 1.43507L7.50878 1.22544C7.51764 1.19829 7.55533 1.19829 7.56426 1.22544ZM7.56426 2.32203L7.63295 2.53166L7.85011 2.53334C7.87824 2.53359 7.88988 2.57008 7.86727 2.58707L7.69258 2.71836L7.75811 2.92902C7.76662 2.95628 7.73607 2.97889 7.71318 2.96222L7.53652 2.83373L7.35986 2.96222C7.33697 2.97886 7.30649 2.95628 7.31493 2.92902L7.38046 2.71836L7.20577 2.58707C7.18317 2.57004 7.1948 2.53359 7.22293 2.53334L7.44009 2.53166L7.50878 2.32203C7.51764 2.29491 7.55533 2.29491 7.56426 2.32203ZM7.56426 3.41861L7.63295 3.62824L7.85011 3.62993C7.87824 3.63018 7.88988 3.66666 7.86727 3.68366L7.69258 3.81494L7.75811 4.02561C7.76662 4.05287 7.73607 4.07548 7.71318 4.05881L7.53652 3.93031L7.35986 4.05881C7.33697 4.07544 7.30649 4.05287 7.31493 4.02561L7.38046 3.81494L7.20577 3.68366C7.18317 3.66663 7.1948 3.63018 7.22293 3.62993L7.44009 3.62824L7.50878 3.41861C7.51764 3.3915 7.55533 3.3915 7.56426 3.41861ZM7.56426 4.51524L7.63295 4.72487L7.85011 4.72655C7.87824 4.7268 7.88988 4.76329 7.86727 4.78028L7.69258 4.91157L7.75811 5.12223C7.76662 5.14949 7.73607 5.1721 7.71318 5.15543L7.53652 5.02693L7.35986 5.15543C7.33697 5.17206 7.30649 5.14949 7.31493 5.12223L7.38046 4.91157L7.20577 4.78028C7.18317 4.76325 7.1948 4.7268 7.22293 4.72655L7.44009 4.72487L7.50878 4.51524C7.51764 4.48808 7.55533 4.48808 7.56426 4.51524ZM7.56426 5.61182L7.63295 5.82145L7.85011 5.82313C7.87824 5.82338 7.88988 5.85987 7.86727 5.87686L7.69258 6.00815L7.75811 6.21882C7.76662 6.24608 7.73607 6.26869 7.71318 6.25202L7.53652 6.12352L7.35986 6.25202C7.33697 6.26865 7.30649 6.24608 7.31493 6.21882L7.38046 6.00815L7.20577 5.87686C7.18317 5.85984 7.1948 5.82338 7.22293 5.82313L7.44009 5.82145L7.50878 5.61182C7.51764 5.58463 7.55533 5.58463 7.56426 5.61182Z" fill="#F5F5F5"/>
</g>
</svg>
