<svg width="24" height="25" viewBox="0 0 24 25" fill="none" xmlns="http://www.w3.org/2000/svg">
<g id="Frame 419">
<g id="Container">
<path id="Vector" d="M17 22.5H7C5.93946 22.499 4.92266 22.1156 4.17274 21.4338C3.42283 20.7521 3.00106 19.8277 3 18.8636V13.4091C3.00106 12.4449 3.42283 11.5206 4.17274 10.8388C4.92266 10.1571 5.93946 9.77367 7 9.77271H17C18.0605 9.77367 19.0773 10.1571 19.8273 10.8388C20.5772 11.5206 20.9989 12.4449 21 13.4091V18.8636C20.9989 19.8277 20.5772 20.7521 19.8273 21.4338C19.0773 22.1156 18.0605 22.499 17 22.5ZM7 11.5909C6.46973 11.5914 5.96133 11.7831 5.58637 12.124C5.21141 12.4648 5.00053 12.927 5 13.4091V18.8636C5.00053 19.3457 5.21141 19.8079 5.58637 20.1487C5.96133 20.4896 6.46973 20.6813 7 20.6818H17C17.5303 20.6813 18.0387 20.4896 18.4136 20.1487C18.7886 19.8079 18.9995 19.3457 19 18.8636V13.4091C18.9995 12.927 18.7886 12.4648 18.4136 12.124C18.0387 11.7831 17.5303 11.5914 17 11.5909H7Z" fill="#4F4F4F"/>
<path id="Vector_2" d="M16.499 11.5909H7.49902C7.23381 11.5909 6.97945 11.4951 6.79192 11.3246C6.60438 11.1542 6.49902 10.9229 6.49902 10.6818V7.5C6.49902 6.17392 7.07849 4.90215 8.10994 3.96447C9.14139 3.02678 10.5403 2.5 11.999 2.5C13.4577 2.5 14.8567 3.02678 15.8881 3.96447C16.9196 4.90215 17.499 6.17392 17.499 7.5V10.6818C17.499 10.9229 17.3937 11.1542 17.2061 11.3246C17.0186 11.4951 16.7642 11.5909 16.499 11.5909ZM8.49902 9.77273H15.499V7.5C15.499 6.65613 15.1303 5.84682 14.4739 5.25011C13.8175 4.65341 12.9273 4.31818 11.999 4.31818C11.0708 4.31818 10.1805 4.65341 9.52415 5.25011C8.86777 5.84682 8.49902 6.65613 8.49902 7.5V9.77273Z" fill="#4F4F4F"/>
<path id="Vector_3" d="M12.0015 16.591C12.8299 16.591 13.5015 15.9805 13.5015 15.2274C13.5015 14.4743 12.8299 13.8638 12.0015 13.8638C11.173 13.8638 10.5015 14.4743 10.5015 15.2274C10.5015 15.9805 11.173 16.591 12.0015 16.591Z" fill="#4F4F4F"/>
</g>
</g>
</svg>
