<svg width="24" height="25" viewBox="0 0 24 25" fill="none" xmlns="http://www.w3.org/2000/svg">
<g id="categories">
<g id="Group">
<path id="Vector" d="M12.3189 10.1465C10.9821 10.1465 9.89453 11.2021 9.89453 12.4997C9.89453 13.7972 10.9821 14.8529 12.3189 14.8529C13.6557 14.8529 14.7432 13.7972 14.7432 12.4997C14.7432 11.2021 13.6557 10.1465 12.3189 10.1465ZM12.3189 13.6763C11.6505 13.6763 11.1067 13.1485 11.1067 12.4997C11.1067 11.8509 11.6505 11.3231 12.3189 11.3231C12.9873 11.3231 13.531 11.8509 13.531 12.4997C13.531 13.1485 12.9873 13.6763 12.3189 13.6763Z" fill="#4F4F4F"/>
<path id="Vector_2" d="M21.3145 16.7188C20.5172 15.9449 19.2982 15.8239 18.3689 16.3555L16.63 14.6677C16.9786 14.0185 17.176 13.2812 17.176 12.4999C17.176 11.414 16.7949 10.4128 16.156 9.61559L18.8169 7.03279C19.4917 7.34482 20.3259 7.23199 20.886 6.68837C21.5949 6.00022 21.5949 4.88055 20.886 4.1924C20.177 3.5043 19.0236 3.5043 18.3146 4.1924C17.7559 4.73469 17.6379 5.54489 17.9597 6.20079L15.2989 8.78363C14.6282 8.27723 13.8175 7.93778 12.9335 7.83024V4.85207H11.7213V7.83024C10.8372 7.9377 10.0266 8.27719 9.35583 8.78359L6.5372 6.04768C7.07349 5.16834 6.97975 3.98128 6.16256 3.18811C5.21732 2.27061 3.67933 2.27065 2.73405 3.18811C1.78663 4.10769 1.78651 5.59622 2.73405 6.51604C3.53452 7.29294 4.75403 7.40895 5.67971 6.87937L8.49871 9.61559C7.977 10.2666 7.62725 11.0535 7.51654 11.9116H2.02401V13.0882H7.51654C7.62725 13.9463 7.977 14.7332 8.49871 15.3842L4.62562 19.1435C3.94988 18.8311 3.11523 18.9457 2.55655 19.488C1.84764 20.1761 1.84764 21.2958 2.55655 21.9839C3.26554 22.6721 4.41895 22.6721 5.12794 21.9839C5.68662 21.4416 5.80469 20.6314 5.48278 19.9756L9.35583 16.2162C10.0265 16.7226 10.8372 17.0621 11.7213 17.1696V21.3243H12.9335V17.1695C14.1156 17.0258 15.1667 16.4673 15.9271 15.6494L17.5117 17.1875C16.964 18.0895 17.0887 19.2728 17.8861 20.0467C18.8313 20.9642 20.3693 20.9642 21.3146 20.0467C22.2597 19.1292 22.2597 17.6363 21.3145 16.7188ZM19.1717 5.02436C19.4079 4.79501 19.7925 4.79493 20.0288 5.02436C20.2652 5.25376 20.2652 5.62693 20.0288 5.85633C19.7925 6.08576 19.408 6.08576 19.1717 5.85633C18.9354 5.62693 18.9354 5.25376 19.1717 5.02436ZM3.59117 5.684C3.11746 5.22419 3.11737 4.47996 3.59121 4.02007C4.06383 3.56128 4.83282 3.56128 5.30544 4.02007C5.77915 4.47988 5.77923 5.22411 5.30544 5.684C4.83282 6.14279 4.06383 6.14279 3.59117 5.684ZM4.27078 21.1519C4.03445 21.3813 3.65 21.3813 3.41367 21.1519C3.17734 20.9225 3.17734 20.5493 3.41367 20.32C3.64992 20.0906 4.03445 20.0905 4.27078 20.32C4.50711 20.5493 4.50711 20.9225 4.27078 21.1519ZM12.3274 16.0297C10.3222 16.0297 8.69084 14.4462 8.69084 12.4999C8.69084 10.5536 10.3222 8.97012 12.3274 8.97012C14.3325 8.97012 15.9638 10.5536 15.9638 12.4999C15.9638 14.4462 14.3325 16.0297 12.3274 16.0297ZM20.4574 19.2147C19.9848 19.6735 19.2158 19.6735 18.7431 19.2147C18.2705 18.756 18.2705 18.0095 18.7431 17.5508C19.2158 17.092 19.9847 17.092 20.4574 17.5508C20.93 18.0095 20.93 18.756 20.4574 19.2147Z" fill="#4F4F4F"/>
</g>
</g>
</svg>
