<svg width="21" height="21" viewBox="0 0 21 21" fill="none" xmlns="http://www.w3.org/2000/svg">
<g id="Group">
<g id="Group_2">
<path id="Vector" fill-rule="evenodd" clip-rule="evenodd" d="M10.4531 1.93089C10.4217 2.0543 10.4406 2.18509 10.5055 2.29463C10.5704 2.40417 10.676 2.48352 10.7993 2.5153C11.3268 2.65077 11.8083 2.9253 12.1935 3.31026C12.8117 3.92865 13.085 4.73287 13.0127 5.59764C13.0021 5.72435 13.0423 5.85008 13.1243 5.94724C13.2063 6.0444 13.3235 6.10507 13.4502 6.11595C13.4639 6.11708 13.4778 6.11767 13.4916 6.11767C13.6121 6.11748 13.7282 6.07209 13.8168 5.99048C13.9055 5.90887 13.9603 5.79698 13.9704 5.6769C14.0652 4.53028 13.688 3.44605 12.873 2.63093C12.366 2.12429 11.7323 1.76306 11.038 1.58494C10.9146 1.55365 10.7838 1.57248 10.6743 1.6373C10.5647 1.70212 10.4852 1.80767 10.4532 1.93089H10.4531ZM20.0245 20.5H11.4068L18.1441 17.6777C18.2313 17.641 18.3056 17.5793 18.3578 17.5004C18.41 17.4215 18.4377 17.329 18.4374 17.2344V8.83585H20.0245V20.5ZM0.0234375 8.83585H1.6084V17.2344C1.60857 17.3292 1.63668 17.4218 1.68922 17.5006C1.74176 17.5795 1.81639 17.6411 1.90377 17.6777L8.64106 20.5H0.0234375V8.83585ZM2.57068 7.02041V16.9147L9.54369 19.8359V16.3714H8.98874C8.55034 16.3706 8.13014 16.1961 7.82026 15.886C7.51038 15.5759 7.33612 15.1555 7.33568 14.7171V14.0962L7.20783 14.038C7.00417 13.9455 6.83144 13.7963 6.71023 13.6083C6.58901 13.4203 6.52444 13.2014 6.5242 12.9777V11.0964C6.53097 10.7203 6.39637 10.3554 6.14703 10.0737L5.79154 9.65914C5.35967 9.15604 5.00221 8.59359 4.73008 7.98897L4.69492 7.9103L2.57068 7.02057V7.02041ZM6.49642 1.95421C7.4341 1.02276 8.70213 0.5 10.0238 0.5C11.3455 0.5 12.6135 1.02276 13.5512 1.95421C14.0775 2.47963 14.4704 3.12339 14.6971 3.83169C15.2801 5.64659 14.7401 7.60813 13.5241 9.03508L13.1708 9.44963C12.8406 9.82922 12.6341 10.3005 12.5788 10.8005L12.5568 10.9943H7.48843L7.46718 10.7997C7.41419 10.2998 7.20828 9.82848 6.87754 9.44995L6.52205 9.03539C5.30101 7.61106 4.76516 5.64882 5.3489 3.83411C5.57609 3.12497 5.96954 2.48042 6.49642 1.95421ZM8.29562 14.1429V14.7171C8.29733 14.9004 8.3709 15.0758 8.50051 15.2054C8.63012 15.335 8.80543 15.4087 8.98874 15.4104H11.119C11.3024 15.4089 11.4778 15.3354 11.6075 15.2056C11.7371 15.0759 11.8105 14.9003 11.8118 14.7169V14.1427L8.29562 14.1429ZM12.5615 11.9553H7.48436V13.1822H12.5615V11.9552L12.5615 11.9553ZM17.4772 7.02057L15.3534 7.91002L15.318 7.98815C15.0434 8.59236 14.6851 9.15495 14.2538 9.65937L13.9005 10.0742C13.6518 10.356 13.5174 10.7206 13.5237 11.0964V12.9777C13.5233 13.1916 13.4641 13.4012 13.3527 13.5838C13.2413 13.7663 13.0818 13.9148 12.8918 14.0129L12.774 14.074V14.717C12.7735 15.1558 12.5989 15.5764 12.2886 15.8865C11.9783 16.1967 11.5576 16.3711 11.1188 16.3714H10.504V19.836L17.4771 16.9148L17.4772 7.02057Z" fill="white"/>
</g>
</g>
</svg>
