<svg width="21" height="21" viewBox="0 0 21 21" fill="none" xmlns="http://www.w3.org/2000/svg">
<g id="Group">
<path id="Vector" d="M10.3273 11.6764C10.9967 11.6764 11.5394 11.1496 11.5394 10.4998C11.5394 9.85002 10.9967 9.32324 10.3273 9.32324C9.6579 9.32324 9.11523 9.85002 9.11523 10.4998C9.11523 11.1496 9.6579 11.6764 10.3273 11.6764Z" fill="white"/>
<path id="Vector_2" d="M19.3128 14.7189C18.4955 13.9254 17.2726 13.8348 16.367 14.3553L14.6286 12.6678C15.4731 11.0948 15.3548 9.11327 14.1546 7.61563L16.8153 5.03284C17.4898 5.34471 18.3241 5.23219 18.8843 4.68845C19.5932 4.00035 19.5932 2.88063 18.8843 2.19249C18.1754 1.50442 17.0219 1.50438 16.3131 2.19253C15.7544 2.73477 15.6363 3.54497 15.9582 4.20091L13.2975 6.78371C12.6268 6.27731 11.8162 5.93783 10.9322 5.83033V2.85212H9.72011V5.83029C8.83613 5.93775 8.02544 6.27723 7.3548 6.78367L4.53604 4.04741C5.08379 3.14536 4.95902 1.96207 4.16175 1.18815C3.21656 0.270615 1.67863 0.270615 0.733438 1.18815C-0.211748 2.10569 -0.211748 3.59854 0.733438 4.51604C1.5337 5.29294 2.75326 5.40907 3.67898 4.87941L6.49777 7.61563C5.97608 8.26664 5.62636 9.05354 5.51565 9.91166H0.0234375V11.0882H5.51565C5.62636 11.9463 5.97609 12.7332 6.49781 13.3842L2.62494 17.1436C1.94928 16.8311 1.11464 16.9457 0.555948 17.488C-0.152921 18.1761 -0.152921 19.2958 0.555948 19.9839C1.2647 20.6719 2.41828 20.6721 3.12719 19.9839C3.6858 19.4416 3.80386 18.6315 3.48201 17.9756L7.35484 14.2162C8.02548 14.7226 8.83617 15.062 9.72015 15.1695V19.3243H10.9322V15.1695C12.1144 15.0258 13.1654 14.4673 13.9257 13.6494L15.51 15.1872C14.9737 16.0665 15.0674 17.2535 15.8846 18.0467C16.8319 18.9663 18.3654 18.9665 19.3129 18.0467C20.2602 17.1272 20.2604 15.6386 19.3128 14.7189ZM10.3262 12.8531C8.9895 12.8531 7.90201 11.7974 7.90201 10.4999C7.90201 9.20238 8.9895 8.14674 10.3262 8.14674C11.6629 8.14674 12.7504 9.20238 12.7504 10.4999C12.7504 11.7974 11.6629 12.8531 10.3262 12.8531Z" fill="white"/>
</g>
</svg>
