<svg width="24" height="25" viewBox="0 0 24 25" fill="none" xmlns="http://www.w3.org/2000/svg">
<g id="Frame 418">
<g id="Group">
<g id="Clip path group">
<mask id="mask0_2115_12500" style="mask-type:luminance" maskUnits="userSpaceOnUse" x="2" y="2" width="20" height="21">
<g id="b">
<path id="Vector" d="M7.22691 2.5H22V16.4233L14.7621 9.18543L13.3811 10.5665L9.47027 6.6557L9.80277 4.50969L7.22691 2.5ZM8.68543 15.2621L10.0665 13.8811L6.1557 9.97027L4.00969 10.3028L2 7.72691V22.5H15.9233L8.68543 15.2621Z" fill="white"/>
</g>
</mask>
<g mask="url(#mask0_2115_12500)">
<path id="Vector_2" d="M6.11545 21.1467C5.35271 21.9094 4.11604 21.9094 3.3533 21.1467C2.59057 20.384 2.59057 19.1473 3.3533 18.3846L11.2158 10.5221C11.7314 10.0064 11.9729 9.28077 11.8817 8.55726C11.7068 7.16968 12.152 5.7189 13.2175 4.65339C14.5555 3.31534 16.501 2.95636 18.166 3.57441L18.4409 3.84933L16.0014 6.28882C15.3819 6.90835 15.3701 7.93413 16.0013 8.54167C16.6131 9.13046 17.5863 9.12335 18.1893 8.52034L20.6506 6.05902L20.9256 6.33394C21.5437 7.99898 21.1847 9.94441 19.8466 11.2825C18.7811 12.348 17.3303 12.7932 15.9428 12.6182C15.2192 12.527 14.4936 12.7685 13.9779 13.2842L6.11545 21.1467Z" stroke="white" stroke-miterlimit="10"/>
</g>
</g>
<path id="Vector_3" d="M6.97252 7.47203L13.3815 13.881M6.97252 7.47203L5.01143 7.77586L3.05029 5.2623L4.76279 3.5498L7.27639 5.5109L6.97252 7.47203ZM12.0004 15.2621L17.885 21.1467C18.6478 21.9094 19.8844 21.9094 20.6472 21.1467C21.4099 20.3839 21.4099 19.1473 20.6472 18.3845L14.7626 12.5L12.0004 15.2621Z" stroke="white" stroke-miterlimit="10"/>
</g>
</g>
</svg>
