<svg width="24" height="25" viewBox="0 0 24 25" fill="none" xmlns="http://www.w3.org/2000/svg">
<g id="Frame 419">
<g id="Layer 2">
<path id="Vector" d="M17 22.4997H7C5.93946 22.4988 4.92266 22.1153 4.17274 21.4336C3.42283 20.7519 3.00106 19.8275 3 18.8634V13.4088C3.00106 12.4447 3.42283 11.5203 4.17274 10.8386C4.92266 10.1568 5.93946 9.77342 7 9.77246H17C18.0605 9.77342 19.0773 10.1568 19.8273 10.8386C20.5772 11.5203 20.9989 12.4447 21 13.4088V18.8634C20.9989 19.8275 20.5772 20.7519 19.8273 21.4336C19.0773 22.1153 18.0605 22.4988 17 22.4997ZM7 11.5906C6.46973 11.5911 5.96133 11.7828 5.58637 12.1237C5.21141 12.4646 5.00053 12.9268 5 13.4088V18.8634C5.00053 19.3454 5.21141 19.8076 5.58637 20.1485C5.96133 20.4894 6.46973 20.6811 7 20.6816H17C17.5303 20.6811 18.0387 20.4894 18.4136 20.1485C18.7886 19.8076 18.9995 19.3454 19 18.8634V13.4088C18.9995 12.9268 18.7886 12.4646 18.4136 12.1237C18.0387 11.7828 17.5303 11.5911 17 11.5906H7Z" fill="white"/>
<path id="Vector_2" d="M16.499 11.5909H7.49902C7.23381 11.5909 6.97945 11.4951 6.79192 11.3246C6.60438 11.1542 6.49902 10.9229 6.49902 10.6818V7.5C6.49902 6.17392 7.07849 4.90215 8.10994 3.96447C9.14139 3.02678 10.5403 2.5 11.999 2.5C13.4577 2.5 14.8567 3.02678 15.8881 3.96447C16.9196 4.90215 17.499 6.17392 17.499 7.5V10.6818C17.499 10.9229 17.3937 11.1542 17.2061 11.3246C17.0186 11.4951 16.7642 11.5909 16.499 11.5909ZM8.49902 9.77273H15.499V7.5C15.499 6.65613 15.1303 5.84682 14.4739 5.25011C13.8175 4.65341 12.9273 4.31818 11.999 4.31818C11.0708 4.31818 10.1805 4.65341 9.52415 5.25011C8.86777 5.84682 8.49902 6.65613 8.49902 7.5V9.77273Z" fill="white"/>
<path id="Vector_3" d="M12.0015 16.5906C12.8299 16.5906 13.5015 15.98 13.5015 15.2269C13.5015 14.4738 12.8299 13.8633 12.0015 13.8633C11.173 13.8633 10.5015 14.4738 10.5015 15.2269C10.5015 15.98 11.173 16.5906 12.0015 16.5906Z" fill="white"/>
</g>
</g>
</svg>
