<svg width="24" height="24" viewBox="0 0 24 24" fill="none" xmlns="http://www.w3.org/2000/svg">
<path id="Vector" fill-rule="evenodd" clip-rule="evenodd" d="M12 0C15.3136 0 18.3137 1.34319 20.4852 3.51476C22.6568 5.68633 24 8.68638 24 12C24 15.3136 22.6568 18.3137 20.4852 20.4852C18.3137 22.6568 15.3136 24 12 24C8.68638 24 5.68633 22.6568 3.51476 20.4852C1.34319 18.3137 0 15.3136 0 12C0 8.68638 1.34319 5.68633 3.51476 3.51476C5.68633 1.34319 8.68638 0 12 0ZM13.4702 6.98362V6.04762L12.8988 5.47619H11.1013L10.5299 6.04762V6.98362C10.3501 7.03639 10.1733 7.0988 10.0002 7.17057C9.82693 7.24249 9.65768 7.32382 9.49324 7.41419L8.83057 6.75152H8.02252L6.75152 8.02257V8.83062L7.41424 9.49333C7.32388 9.65774 7.24257 9.82696 7.17067 10.0002C7.0989 10.1733 7.0365 10.3501 6.98371 10.5299H6.04762L5.47619 11.1013V12.8988L6.04762 13.4702H6.98367C7.03643 13.65 7.09884 13.8268 7.17062 13.9998C7.24252 14.1731 7.32385 14.3424 7.41424 14.5068L6.75152 15.1695V15.9776L8.02257 17.2486H8.83062L9.49329 16.5859C9.6577 16.6763 9.82693 16.7576 10.0002 16.8295C10.1733 16.9013 10.3501 16.9637 10.5299 17.0165V17.9524L11.1013 18.5238H12.8988L13.4702 17.9524V17.0164C13.6506 16.9634 13.8274 16.9009 13.9999 16.8294C14.1732 16.7575 14.3424 16.6762 14.5069 16.5858L15.1695 17.2485H15.9776L17.2486 15.9775V15.1694L16.5859 14.5067C16.6763 14.3423 16.7576 14.173 16.8295 13.9997C16.9013 13.8267 16.9637 13.6499 17.0165 13.4701H17.9524L18.5238 12.8987V11.1012L17.9524 10.5298H17.0163C16.9636 10.35 16.9012 10.1732 16.8294 10.0001C16.7575 9.82687 16.6762 9.65765 16.5858 9.49324L17.2485 8.83052V8.02248L15.9775 6.75143H15.1695L14.5068 7.4141C14.3424 7.32372 14.1731 7.24239 13.9998 7.17048C13.8267 7.09877 13.6499 7.0364 13.4702 6.98362ZM12 9.17857C11.221 9.17857 10.5156 9.49438 10.005 10.005C9.49443 10.5156 9.17857 11.221 9.17857 12C9.17857 12.779 9.49438 13.4844 10.005 13.995C10.5156 14.5056 11.221 14.8214 12 14.8214C12.779 14.8214 13.4844 14.5056 13.995 13.995C14.5056 13.4844 14.8214 12.779 14.8214 12C14.8214 11.221 14.5056 10.5156 13.995 10.005C13.4844 9.49438 12.779 9.17857 12 9.17857Z" fill="#4F4F4F"/>
</svg>
